#N canvas -233 98 1336 946 12;
#X obj 228 69 gemhead;
#X obj 258 186 rotateXYZ;
#X floatatom 288 110 5 0 0 0 - - -;
#X floatatom 333 110 5 0 0 0 - - -;
#X floatatom 377 111 5 0 0 0 - - -;
#X msg 136 281 draw line;
#X msg 87 320 draw fill;
#X obj 271 253 translateXYZ;
#X floatatom 356 160 5 0 0 0 - - -;
#X floatatom 383 186 5 0 0 0 - - -;
#X floatatom 410 213 5 0 0 0 - - -;
#X msg 467 130 -2;
#X obj 44 88 gemwin;
#X msg 44 25 create;
#X msg 55 53 destroy;
#X obj 24 55 tgl 15 0 empty empty empty 17 7 0 10 -262144 -1 -1 1 1
;
#X obj 1688 303 dac~ 1 2;
#X obj 1180 8 openpanel;
#X obj 1178 -22 bng 15 250 50 0 empty empty empty 17 7 0 10 -262144
-1 -1;
#X msg 1428 -22 stop, f 5;
#X obj 1252 123 bng 15 250 50 0 empty empty empty 17 7 0 10 -262144
-1 -1;
#X obj 1229 332 hip~;
#X obj 1229 374 env~;
#X floatatom 1230 407 5 0 0 0 - - -;
#X msg 1256 282 3000;
#X obj 1168 314 env~;
#X floatatom 1164 342 5 0 0 0 - - -;
#X obj 1168 272 lop~;
#X msg 1195 222 90;
#X obj 1182 87 soundfiler;
#X obj 1313 129 spigot;
#X obj 1345 93 tgl 15 0 empty empty empty 17 7 0 10 -262144 -1 -1 0
1;
#X obj 1159 163 tabplay~ leftChannel;
#N canvas 0 50 450 250 (subpatch) 0;
#X array leftChannel 3.84958e+06 float 2;
#X coords 0 1 3.84958e+06 -1 200 140 1;
#X restore 1140 557 graph;
#N canvas 0 50 450 250 (subpatch) 0;
#X array rightChannel 3.84958e+06 float 2;
#X coords 0 1 3.84958e+06 -1 200 140 1;
#X restore 1140 716 graph;
#X msg 1090 60 read -resize \$1 leftChannel rightChannel;
#X obj 1248 188 tabplay~ rightChannel;
#X obj 1159 431 s lowOut;
#X obj 1205 510 s highOut;
#X floatatom 1277 462 5 0 0 0 - - -;
#X obj 1337 474 tgl 15 0 empty empty empty 17 7 0 10 -262144 -1 -1
0 1;
#X obj 1288 433 > 80;
#X floatatom 1162 399 5 0 0 0 - - -;
#X obj 1226 469 / 50;
#X obj 1489 11 openpanel;
#X obj 1487 -19 bng 15 250 50 0 empty empty empty 17 7 0 10 -262144
-1 -1;
#X obj 1561 126 bng 15 250 50 0 empty empty empty 17 7 0 10 -262144
-1 -1;
#X obj 1538 335 hip~;
#X obj 1538 377 env~;
#X floatatom 1539 410 5 0 0 0 - - -;
#X msg 1565 285 3000;
#X obj 1477 317 env~;
#X floatatom 1473 345 5 0 0 0 - - -;
#X obj 1477 275 lop~;
#X msg 1504 225 90;
#X obj 1491 90 soundfiler;
#X obj 1622 132 spigot;
#X obj 1654 96 tgl 15 0 empty empty empty 17 7 0 10 -262144 -1 -1 0
1;
#N canvas 2 87 450 250 (subpatch) 0;
#X array left2Channel 3.84958e+06 float 2;
#X coords 0 1 3.84958e+06 -1 200 140 1 0 0;
#X restore 1449 560 graph;
#N canvas 0 50 450 250 (subpatch) 0;
#X array right2Channel 3.84958e+06 float 2;
#X coords 0 1 3.84958e+06 -1 200 140 1 0 0;
#X restore 1449 719 graph;
#X floatatom 1586 465 5 0 0 0 - - -;
#X obj 1646 477 tgl 15 0 empty empty empty 17 7 0 10 -262144 -1 -1
0 1;
#X obj 1597 436 > 80;
#X floatatom 1471 402 5 0 0 0 - - -;
#X obj 1535 472 / 50;
#X msg 1399 63 read -resize \$1 left2Channel right2Channel;
#X obj 1514 513 s high2Out;
#X obj 1468 434 s low2Out;
#X obj 281 387 cuboid;
#X floatatom 303 325 5 0 0 0 - - -;
#X floatatom 347 326 5 0 0 0 - - -;
#X floatatom 390 327 5 0 0 0 - - -;
#X obj 865 1011 r highOut;
#X obj 562 1012 r high2Out;
#X obj 1347 -13 bng 15 250 50 0 empty empty empty 17 7 0 10 -262144
-1 -1;
#X obj 300 1012 r lowOut;
#X obj 908 636 r low2Out;
#X obj 1468 166 tabplay~ left2Channel;
#X obj 1557 191 tabplay~ right2Channel;
#X msg 431 116 -3;
#X obj 513 68 gemhead;
#X obj 543 185 rotateXYZ;
#X floatatom 573 109 5 0 0 0 - - -;
#X floatatom 618 109 5 0 0 0 - - -;
#X floatatom 662 110 5 0 0 0 - - -;
#X msg 471 280 draw line;
#X obj 571 244 translateXYZ;
#X floatatom 641 159 5 0 0 0 - - -;
#X floatatom 668 185 5 0 0 0 - - -;
#X floatatom 695 212 5 0 0 0 - - -;
#X msg 752 129 -2;
#X obj 516 390 cuboid;
#X floatatom 538 328 5 0 0 0 - - -;
#X floatatom 582 329 5 0 0 0 - - -;
#X floatatom 625 330 5 0 0 0 - - -;
#X msg 716 115 -3;
#X obj 778 68 gemhead;
#X obj 808 185 rotateXYZ;
#X floatatom 838 109 5 0 0 0 - - -;
#X floatatom 883 109 5 0 0 0 - - -;
#X floatatom 927 110 5 0 0 0 - - -;
#X msg 736 280 draw line;
#X obj 831 276 translateXYZ;
#X floatatom 906 159 5 0 0 0 - - -;
#X floatatom 933 185 5 0 0 0 - - -;
#X floatatom 960 212 5 0 0 0 - - -;
#X msg 1017 129 -2;
#X obj 761 388 cuboid;
#X floatatom 783 326 5 0 0 0 - - -;
#X floatatom 827 327 5 0 0 0 - - -;
#X floatatom 870 328 5 0 0 0 - - -;
#X msg 981 115 -3;
#X msg 593 275 1;
#X obj 212 427 gemhead;
#X obj 242 544 rotateXYZ;
#X floatatom 272 468 5 0 0 0 - - -;
#X floatatom 317 468 5 0 0 0 - - -;
#X floatatom 361 469 5 0 0 0 - - -;
#X msg 177 601 draw line;
#X obj 272 597 translateXYZ;
#X floatatom 340 518 5 0 0 0 - - -;
#X floatatom 367 544 5 0 0 0 - - -;
#X floatatom 394 571 5 0 0 0 - - -;
#X obj 220 739 cuboid;
#X floatatom 242 677 5 0 0 0 - - -;
#X floatatom 286 678 5 0 0 0 - - -;
#X floatatom 329 679 5 0 0 0 - - -;
#X msg 415 474 -3;
#X obj 497 426 gemhead;
#X obj 527 543 rotateXYZ;
#X floatatom 557 467 5 0 0 0 - - -;
#X floatatom 602 467 5 0 0 0 - - -;
#X floatatom 646 468 5 0 0 0 - - -;
#X msg 462 600 draw line;
#X obj 557 596 translateXYZ;
#X floatatom 625 517 5 0 0 0 - - -;
#X floatatom 652 543 5 0 0 0 - - -;
#X floatatom 679 570 5 0 0 0 - - -;
#X obj 505 738 cuboid;
#X floatatom 527 676 5 0 0 0 - - -;
#X floatatom 571 677 5 0 0 0 - - -;
#X floatatom 614 678 5 0 0 0 - - -;
#X msg 700 473 -3;
#X obj 762 426 gemhead;
#X obj 792 543 rotateXYZ;
#X floatatom 822 467 5 0 0 0 - - -;
#X floatatom 867 467 5 0 0 0 - - -;
#X floatatom 911 468 5 0 0 0 - - -;
#X msg 727 600 draw line;
#X obj 822 596 translateXYZ;
#X floatatom 890 517 5 0 0 0 - - -;
#X floatatom 917 543 5 0 0 0 - - -;
#X floatatom 944 570 5 0 0 0 - - -;
#X obj 770 738 cuboid;
#X floatatom 792 676 5 0 0 0 - - -;
#X floatatom 836 677 5 0 0 0 - - -;
#X floatatom 879 678 5 0 0 0 - - -;
#X msg 965 473 -3;
#X msg 586 637 1;
#X msg 451 488 -5;
#X msg 736 487 -5;
#X msg 1001 487 -5;
#X msg 919 492 3;
#X msg 648 490 0;
#X msg 936 134 3;
#X obj 145 775 gemhead;
#X obj 175 892 rotateXYZ;
#X floatatom 205 816 5 0 0 0 - - -;
#X floatatom 250 816 5 0 0 0 - - -;
#X floatatom 294 817 5 0 0 0 - - -;
#X msg 103 987 draw line;
#X obj 198 983 translateXYZ;
#X floatatom 273 866 5 0 0 0 - - -;
#X floatatom 300 892 5 0 0 0 - - -;
#X floatatom 327 919 5 0 0 0 - - -;
#X obj 140 1141 cuboid;
#X floatatom 162 1079 5 0 0 0 - - -;
#X floatatom 206 1080 5 0 0 0 - - -;
#X floatatom 249 1081 5 0 0 0 - - -;
#X msg 348 822 -3;
#X obj 430 774 gemhead;
#X obj 460 891 rotateXYZ;
#X floatatom 490 815 5 0 0 0 - - -;
#X floatatom 535 815 5 0 0 0 - - -;
#X floatatom 579 816 5 0 0 0 - - -;
#X msg 388 986 draw line;
#X obj 483 982 translateXYZ;
#X floatatom 558 865 5 0 0 0 - - -;
#X floatatom 585 891 5 0 0 0 - - -;
#X floatatom 612 918 5 0 0 0 - - -;
#X obj 425 1140 cuboid;
#X floatatom 447 1078 5 0 0 0 - - -;
#X floatatom 491 1079 5 0 0 0 - - -;
#X floatatom 534 1080 5 0 0 0 - - -;
#X msg 633 821 -3;
#X obj 695 774 gemhead;
#X obj 725 891 rotateXYZ;
#X floatatom 755 815 5 0 0 0 - - -;
#X floatatom 800 815 5 0 0 0 - - -;
#X floatatom 844 816 5 0 0 0 - - -;
#X msg 653 986 draw line;
#X obj 748 982 translateXYZ;
#X floatatom 823 865 5 0 0 0 - - -;
#X floatatom 850 891 5 0 0 0 - - -;
#X floatatom 877 918 5 0 0 0 - - -;
#X obj 690 1140 cuboid;
#X floatatom 712 1078 5 0 0 0 - - -;
#X floatatom 756 1079 5 0 0 0 - - -;
#X floatatom 799 1080 5 0 0 0 - - -;
#X msg 898 821 -3;
#X msg 512 1023 1;
#X msg 852 840 3;
#X msg 581 838 0;
#X msg 934 835 -9;
#X msg 669 835 -9;
#X msg 378 851 -9;
#X obj 1808 12 openpanel;
#X obj 1806 -18 bng 15 250 50 0 empty empty empty 17 7 0 10 -262144
-1 -1;
#X obj 1880 127 bng 15 250 50 0 empty empty empty 17 7 0 10 -262144
-1 -1;
#X obj 1857 336 hip~;
#X obj 1857 378 env~;
#X floatatom 1858 411 5 0 0 0 - - -;
#X msg 1884 286 3000;
#X obj 1796 318 env~;
#X floatatom 1792 346 5 0 0 0 - - -;
#X obj 1796 276 lop~;
#X msg 1823 226 90;
#X obj 1810 91 soundfiler;
#X obj 1941 133 spigot;
#X obj 1973 97 tgl 15 0 empty empty empty 17 7 0 10 -262144 -1 -1 0
1;
#N canvas 2 87 450 250 (subpatch) 0;
#X array left3Channel 3.84958e+06 float 2;
#X coords 0 1 3.84958e+06 -1 200 140 1 0 0;
#X restore 1768 561 graph;
#N canvas 0 50 450 250 (subpatch) 0;
#X array right3Channel 3.84958e+06 float 2;
#X coords 0 1 3.84958e+06 -1 200 140 1 0 0;
#X restore 1768 720 graph;
#X floatatom 1905 466 5 0 0 0 - - -;
#X obj 1965 478 tgl 15 0 empty empty empty 17 7 0 10 -262144 -1 -1
0 1;
#X obj 1916 437 > 80;
#X floatatom 1790 403 5 0 0 0 - - -;
#X obj 1854 473 / 50;
#X msg 1718 64 read -resize \$1 left3Channel right3Channel;
#X obj 1787 167 tabplay~ left3Channel;
#X obj 1867 212 tabplay~ right3Channel;
#X obj 1787 435 s low3Out;
#X obj 1833 514 s high3Out;
#X obj 2124 12 openpanel;
#X obj 2122 -18 bng 15 250 50 0 empty empty empty 17 7 0 10 -262144
-1 -1;
#X obj 2196 127 bng 15 250 50 0 empty empty empty 17 7 0 10 -262144
-1 -1;
#X obj 2173 336 hip~;
#X obj 2173 378 env~;
#X floatatom 2174 411 5 0 0 0 - - -;
#X msg 2200 286 3000;
#X obj 2112 318 env~;
#X floatatom 2108 346 5 0 0 0 - - -;
#X obj 2112 276 lop~;
#X msg 2139 226 90;
#X obj 2126 91 soundfiler;
#X obj 2257 133 spigot;
#X obj 2289 97 tgl 15 0 empty empty empty 17 7 0 10 -262144 -1 -1 0
1;
#N canvas 2 87 450 250 (subpatch) 0;
#X array left4Channel 3.84958e+06 float 2;
#X coords 0 1 3.84958e+06 -1 200 140 1 0 0;
#X restore 2084 561 graph;
#N canvas 0 50 450 250 (subpatch) 0;
#X array right4Channel 3.84958e+06 float 2;
#X coords 0 1 3.84958e+06 -1 200 140 1 0 0;
#X restore 2084 720 graph;
#X floatatom 2221 466 5 0 0 0 - - -;
#X obj 2281 478 tgl 15 0 empty empty empty 17 7 0 10 -262144 -1 -1
0 1;
#X obj 2232 437 > 80;
#X floatatom 2106 403 5 0 0 0 - - -;
#X obj 2170 473 / 50;
#X msg 2034 64 read -resize \$1 left4Channel right4Channel;
#X obj 2103 167 tabplay~ left4Channel;
#X obj 2192 192 tabplay~ right4Channel;
#X obj 354 293 r low3Out;
#X obj 653 627 r high3Out;
#X obj 377 623 r high4Out;
#X obj 943 290 r low4Out;
#X obj 2150 514 s high4Out;
#X obj 2103 435 s low4Out;
#X obj 1162 369 / 70;
#X obj 1471 372 / 30, f 5;
#X obj 1790 373 / 50, f 5;
#X obj 2106 373 / 50, f 5;
#X obj 647 274 r highOut;
#X obj 1148 915 hid;
#X obj 1172 948 print;
#X msg 1213 878 print;
#X obj 1148 973 route key abs;
#X obj 1150 1167 tgl 15 0 empty empty empty 17 7 0 10 -262144 -1 -1
0 1;
#X obj 1190 1169 tgl 15 0 empty empty empty 17 7 0 10 -262144 -1 -1
0 1;
#X obj 1116 879 tgl 15 0 empty empty empty 17 7 0 10 -262144 -1 -1
1 1;
#X obj 1344 1174 tgl 15 0 empty empty empty 17 7 0 10 -262144 -1 -1
0 1;
#X obj 1308 1174 tgl 15 0 empty empty empty 17 7 0 10 -262144 -1 -1
0 1;
#X obj 1269 1175 tgl 15 0 empty empty empty 17 7 0 10 -262144 -1 -1
0 1;
#X obj 1149 1133 route btn_0 btn_1 btn_2 btn_3 btn_4 btn_6 btn_7;
#X obj 1381 1174 tgl 15 0 empty empty empty 17 7 0 10 -262144 -1 -1
0 1;
#X obj 1416 1174 tgl 15 0 empty empty empty 17 7 0 10 -262144 -1 -1
0 1;
#X obj 1211 1008 route abs_x abs_y abs_rx abs_ry;
#X floatatom 1216 1050 5 0 0 0 - - -;
#X floatatom 1270 1054 5 0 0 0 - - -;
#X floatatom 1352 1039 5 0 0 0 - - -;
#X floatatom 1438 1040 5 0 0 0 - - -;
#X obj 1509 1110 s rycont;
#X obj 1420 1107 s rxcont;
#X obj 428 1 r rxcont;
#X obj 608 -7 r rycont;
#X obj 426 385 r rxcont;
#X obj 635 391 r rycont;
#X obj 411 729 r rxcont;
#X obj 603 740 r rycont;
#X obj 1382 1073 / 94;
#X obj 1480 1071 / 200;
#X msg 108 85 dimen 800 600;
#X msg 1141 877 open 16;
#X connect 0 0 1 0;
#X connect 1 0 7 0;
#X connect 2 0 1 1;
#X connect 3 0 1 2;
#X connect 4 0 1 3;
#X connect 5 0 68 0;
#X connect 6 0 68 0;
#X connect 7 0 68 0;
#X connect 8 0 7 1;
#X connect 9 0 7 2;
#X connect 10 0 7 3;
#X connect 11 0 10 0;
#X connect 13 0 12 0;
#X connect 14 0 12 0;
#X connect 15 0 12 0;
#X connect 17 0 35 0;
#X connect 18 0 17 0;
#X connect 19 0 32 0;
#X connect 19 0 36 0;
#X connect 19 0 77 0;
#X connect 19 0 78 0;
#X connect 19 0 238 0;
#X connect 19 0 239 0;
#X connect 19 0 264 0;
#X connect 19 0 265 0;
#X connect 20 0 32 0;
#X connect 20 0 36 0;
#X connect 21 0 22 0;
#X connect 22 0 23 0;
#X connect 23 0 41 0;
#X connect 23 0 43 0;
#X connect 24 0 21 1;
#X connect 25 0 26 0;
#X connect 26 0 272 0;
#X connect 27 0 25 0;
#X connect 28 0 27 1;
#X connect 30 0 20 0;
#X connect 31 0 30 1;
#X connect 32 0 16 0;
#X connect 32 0 27 0;
#X connect 35 0 29 0;
#X connect 36 0 16 1;
#X connect 36 0 21 0;
#X connect 36 1 30 0;
#X connect 41 0 39 0;
#X connect 41 0 40 0;
#X connect 42 0 37 0;
#X connect 43 0 38 0;
#X connect 44 0 65 0;
#X connect 45 0 44 0;
#X connect 46 0 77 0;
#X connect 46 0 78 0;
#X connect 46 0 218 0;
#X connect 47 0 48 0;
#X connect 48 0 49 0;
#X connect 49 0 62 0;
#X connect 49 0 64 0;
#X connect 50 0 47 1;
#X connect 51 0 52 0;
#X connect 52 0 273 0;
#X connect 53 0 51 0;
#X connect 54 0 53 1;
#X connect 56 0 46 0;
#X connect 57 0 56 1;
#X connect 62 0 60 0;
#X connect 62 0 61 0;
#X connect 63 0 67 0;
#X connect 64 0 66 0;
#X connect 65 0 55 0;
#X connect 69 0 68 1;
#X connect 70 0 68 2;
#X connect 71 0 68 3;
#X connect 72 0 207 0;
#X connect 73 0 192 0;
#X connect 74 0 20 0;
#X connect 74 0 46 0;
#X connect 75 0 177 0;
#X connect 76 0 155 0;
#X connect 77 0 53 0;
#X connect 77 0 16 0;
#X connect 78 0 47 0;
#X connect 78 0 16 1;
#X connect 78 1 56 0;
#X connect 79 0 8 0;
#X connect 79 0 9 0;
#X connect 80 0 81 0;
#X connect 81 0 86 0;
#X connect 82 0 81 1;
#X connect 83 0 81 2;
#X connect 84 0 81 3;
#X connect 85 0 91 0;
#X connect 86 0 91 0;
#X connect 87 0 86 1;
#X connect 88 0 86 2;
#X connect 89 0 86 3;
#X connect 90 0 89 0;
#X connect 92 0 91 1;
#X connect 93 0 91 2;
#X connect 94 0 91 3;
#X connect 95 0 88 0;
#X connect 96 0 97 0;
#X connect 97 0 102 0;
#X connect 98 0 97 1;
#X connect 99 0 97 2;
#X connect 100 0 97 3;
#X connect 101 0 107 0;
#X connect 102 0 107 0;
#X connect 103 0 102 1;
#X connect 104 0 102 2;
#X connect 105 0 102 3;
#X connect 106 0 105 0;
#X connect 108 0 107 1;
#X connect 109 0 107 2;
#X connect 110 0 107 3;
#X connect 111 0 104 0;
#X connect 112 0 69 0;
#X connect 112 0 70 0;
#X connect 112 0 71 0;
#X connect 112 0 92 0;
#X connect 112 0 93 0;
#X connect 112 0 94 0;
#X connect 112 0 108 0;
#X connect 112 0 109 0;
#X connect 112 0 110 0;
#X connect 113 0 114 0;
#X connect 114 0 119 0;
#X connect 115 0 114 1;
#X connect 116 0 114 2;
#X connect 117 0 114 3;
#X connect 118 0 123 0;
#X connect 119 0 123 0;
#X connect 120 0 119 1;
#X connect 121 0 119 2;
#X connect 122 0 119 3;
#X connect 124 0 123 1;
#X connect 125 0 123 2;
#X connect 126 0 123 3;
#X connect 127 0 120 0;
#X connect 127 0 121 0;
#X connect 128 0 129 0;
#X connect 129 0 134 0;
#X connect 130 0 129 1;
#X connect 131 0 129 2;
#X connect 132 0 129 3;
#X connect 133 0 138 0;
#X connect 134 0 138 0;
#X connect 135 0 134 1;
#X connect 136 0 134 2;
#X connect 137 0 134 3;
#X connect 139 0 138 1;
#X connect 140 0 138 2;
#X connect 141 0 138 3;
#X connect 142 0 136 0;
#X connect 143 0 144 0;
#X connect 144 0 149 0;
#X connect 145 0 144 1;
#X connect 146 0 144 2;
#X connect 147 0 144 3;
#X connect 148 0 153 0;
#X connect 149 0 153 0;
#X connect 150 0 149 1;
#X connect 151 0 149 2;
#X connect 152 0 149 3;
#X connect 154 0 153 1;
#X connect 155 0 153 2;
#X connect 156 0 153 3;
#X connect 157 0 151 0;
#X connect 158 0 124 0;
#X connect 158 0 125 0;
#X connect 158 0 126 0;
#X connect 158 0 139 0;
#X connect 158 0 140 0;
#X connect 158 0 141 0;
#X connect 158 0 154 0;
#X connect 158 0 155 0;
#X connect 158 0 156 0;
#X connect 159 0 122 0;
#X connect 160 0 137 0;
#X connect 161 0 152 0;
#X connect 162 0 150 0;
#X connect 163 0 135 0;
#X connect 164 0 103 0;
#X connect 165 0 166 0;
#X connect 166 0 171 0;
#X connect 167 0 166 1;
#X connect 168 0 166 2;
#X connect 169 0 166 3;
#X connect 170 0 175 0;
#X connect 171 0 175 0;
#X connect 172 0 171 1;
#X connect 173 0 171 2;
#X connect 174 0 171 3;
#X connect 176 0 175 1;
#X connect 177 0 175 2;
#X connect 178 0 175 3;
#X connect 179 0 172 0;
#X connect 179 0 173 0;
#X connect 180 0 181 0;
#X connect 181 0 186 0;
#X connect 182 0 181 1;
#X connect 183 0 181 2;
#X connect 184 0 181 3;
#X connect 185 0 190 0;
#X connect 186 0 190 0;
#X connect 187 0 186 1;
#X connect 188 0 186 2;
#X connect 189 0 186 3;
#X connect 191 0 190 1;
#X connect 192 0 190 2;
#X connect 193 0 190 3;
#X connect 194 0 188 0;
#X connect 195 0 196 0;
#X connect 196 0 201 0;
#X connect 197 0 196 1;
#X connect 198 0 196 2;
#X connect 199 0 196 3;
#X connect 200 0 205 0;
#X connect 201 0 205 0;
#X connect 202 0 201 1;
#X connect 203 0 201 2;
#X connect 204 0 201 3;
#X connect 206 0 205 1;
#X connect 207 0 205 2;
#X connect 208 0 205 3;
#X connect 209 0 203 0;
#X connect 210 0 176 0;
#X connect 210 0 177 0;
#X connect 210 0 178 0;
#X connect 210 0 191 0;
#X connect 210 0 192 0;
#X connect 210 0 193 0;
#X connect 210 0 206 0;
#X connect 210 0 207 0;
#X connect 210 0 208 0;
#X connect 211 0 202 0;
#X connect 212 0 187 0;
#X connect 213 0 204 0;
#X connect 214 0 189 0;
#X connect 215 0 174 0;
#X connect 216 0 237 0;
#X connect 217 0 216 0;
#X connect 218 0 238 0;
#X connect 218 0 239 0;
#X connect 218 0 244 0;
#X connect 219 0 220 0;
#X connect 220 0 221 0;
#X connect 221 0 234 0;
#X connect 221 0 236 0;
#X connect 222 0 219 1;
#X connect 223 0 224 0;
#X connect 224 0 274 0;
#X connect 225 0 223 0;
#X connect 226 0 225 1;
#X connect 228 0 218 0;
#X connect 229 0 228 1;
#X connect 234 0 232 0;
#X connect 234 0 233 0;
#X connect 235 0 240 0;
#X connect 236 0 241 0;
#X connect 237 0 227 0;
#X connect 238 0 225 0;
#X connect 238 0 16 0;
#X connect 239 0 219 0;
#X connect 239 0 16 1;
#X connect 239 1 228 0;
#X connect 242 0 263 0;
#X connect 243 0 242 0;
#X connect 244 0 264 0;
#X connect 244 0 265 0;
#X connect 245 0 246 0;
#X connect 246 0 247 0;
#X connect 247 0 260 0;
#X connect 247 0 262 0;
#X connect 248 0 245 1;
#X connect 249 0 250 0;
#X connect 250 0 275 0;
#X connect 251 0 249 0;
#X connect 252 0 251 1;
#X connect 254 0 244 0;
#X connect 255 0 254 1;
#X connect 260 0 258 0;
#X connect 260 0 259 0;
#X connect 261 0 271 0;
#X connect 262 0 270 0;
#X connect 263 0 253 0;
#X connect 264 0 251 0;
#X connect 264 0 16 0;
#X connect 265 0 245 0;
#X connect 265 0 16 1;
#X connect 265 1 254 0;
#X connect 266 0 70 0;
#X connect 267 0 140 0;
#X connect 268 0 125 0;
#X connect 269 0 109 0;
#X connect 272 0 42 0;
#X connect 273 0 63 0;
#X connect 274 0 235 0;
#X connect 275 0 261 0;
#X connect 276 0 93 0;
#X connect 277 0 278 0;
#X connect 277 0 280 0;
#X connect 279 0 277 0;
#X connect 280 0 287 0;
#X connect 280 1 290 0;
#X connect 283 0 277 0;
#X connect 287 0 281 0;
#X connect 287 1 282 0;
#X connect 287 3 286 0;
#X connect 287 4 285 0;
#X connect 287 5 284 0;
#X connect 287 6 288 0;
#X connect 287 7 289 0;
#X connect 290 0 291 0;
#X connect 290 1 292 0;
#X connect 290 2 293 0;
#X connect 290 3 294 0;
#X connect 293 0 303 0;
#X connect 294 0 304 0;
#X connect 297 0 4 0;
#X connect 297 0 84 0;
#X connect 297 0 100 0;
#X connect 298 0 2 0;
#X connect 298 0 82 0;
#X connect 298 0 98 0;
#X connect 299 0 117 0;
#X connect 299 0 132 0;
#X connect 299 0 147 0;
#X connect 300 0 115 0;
#X connect 300 0 130 0;
#X connect 300 0 145 0;
#X connect 301 0 169 0;
#X connect 301 0 184 0;
#X connect 301 0 199 0;
#X connect 302 0 167 0;
#X connect 302 0 182 0;
#X connect 302 0 197 0;
#X connect 303 0 296 0;
#X connect 304 0 295 0;
#X connect 305 0 12 0;
#X connect 306 0 277 0;
