#N canvas 821 87 1084 968 12;
#X obj 184 321 rotateXYZ;
#X floatatom 172 204 5 0 0 0 - - -;
#X floatatom 225 219 5 0 0 0 - - -;
#X floatatom 271 221 5 0 0 0 - - -;
#X msg 98 360 draw line;
#X obj 177 363 translateXYZ;
#X floatatom 343 232 5 0 0 0 - - -;
#X floatatom 388 233 5 0 0 0 - - -;
#X floatatom 431 234 5 0 0 0 - - -;
#X floatatom 237 474 5 0 0 0 - - -;
#X obj 181 451 color;
#X msg 189 398 1 0 0;
#X msg 58 443 draw fill;
#X obj 65 107 gemwin;
#X msg 61 26 create;
#X msg 72 54 destroy;
#X obj 41 56 tgl 15 0 empty empty empty 17 7 0 10 -262144 -1 -1 1 1
;
#X msg 148 83 dimen 800 600;
#X obj 145 171 gemhead;
#X obj 194 539 cuboid;
#X floatatom 271 478 5 0 0 0 - - -;
#X floatatom 309 483 5 0 0 0 - - -;
#X msg 299 428 0.5;
#X obj 228 265 +;
#X obj 260 283 +;
#X obj 343 277 +;
#X obj 388 279 +;
#X obj 431 282 +;
#X msg 248 397 1 1 1;
#X obj 546 309 rotateXYZ;
#X floatatom 534 192 5 0 0 0 - - -;
#X floatatom 587 207 5 0 0 0 - - -;
#X floatatom 633 209 5 0 0 0 - - -;
#X msg 460 348 draw line;
#X obj 539 351 translateXYZ;
#X floatatom 705 220 5 0 0 0 - - -;
#X floatatom 750 221 5 0 0 0 - - -;
#X floatatom 793 222 5 0 0 0 - - -;
#X floatatom 599 462 5 0 0 0 - - -;
#X obj 543 439 color;
#X msg 420 431 draw fill;
#X obj 507 159 gemhead;
#X obj 556 527 cuboid;
#X floatatom 633 466 5 0 0 0 - - -;
#X floatatom 671 471 5 0 0 0 - - -;
#X msg 661 416 0.5;
#X obj 540 228 +;
#X obj 590 253 +;
#X obj 622 271 +;
#X obj 750 267 +;
#X obj 793 270 +;
#X msg 610 385 1 1 1;
#X obj 896 315 rotateXYZ;
#X floatatom 884 198 5 0 0 0 - - -;
#X floatatom 937 213 5 0 0 0 - - -;
#X floatatom 983 215 5 0 0 0 - - -;
#X msg 810 354 draw line;
#X obj 889 357 translateXYZ;
#X floatatom 1055 226 5 0 0 0 - - -;
#X floatatom 1100 227 5 0 0 0 - - -;
#X floatatom 1143 228 5 0 0 0 - - -;
#X floatatom 949 468 5 0 0 0 - - -;
#X obj 893 445 color;
#X msg 770 437 draw fill;
#X obj 857 165 gemhead;
#X obj 906 533 cuboid;
#X floatatom 983 472 5 0 0 0 - - -;
#X floatatom 1021 477 5 0 0 0 - - -;
#X msg 1011 422 0.5;
#X obj 890 234 +;
#X obj 940 259 +;
#X obj 972 277 +;
#X obj 1100 273 +;
#X obj 1143 276 +;
#X msg 960 391 1 1 1;
#X obj 129 697 rotateXYZ;
#X floatatom 117 580 5 0 0 0 - - -;
#X floatatom 170 595 5 0 0 0 - - -;
#X floatatom 216 597 5 0 0 0 - - -;
#X msg 43 736 draw line;
#X obj 122 739 translateXYZ;
#X floatatom 288 608 5 0 0 0 - - -;
#X floatatom 333 609 5 0 0 0 - - -;
#X floatatom 376 610 5 0 0 0 - - -;
#X floatatom 182 850 5 0 0 0 - - -;
#X obj 126 827 color;
#X msg 3 819 draw fill;
#X obj 90 547 gemhead;
#X obj 139 915 cuboid;
#X floatatom 216 854 5 0 0 0 - - -;
#X floatatom 254 859 5 0 0 0 - - -;
#X msg 244 804 0.5;
#X obj 123 616 +;
#X obj 173 641 +;
#X obj 205 659 +;
#X obj 288 653 +;
#X obj 333 655 +;
#X msg 193 773 1 1 1;
#X obj 491 685 rotateXYZ;
#X floatatom 479 568 5 0 0 0 - - -;
#X floatatom 532 583 5 0 0 0 - - -;
#X floatatom 578 585 5 0 0 0 - - -;
#X msg 405 724 draw line;
#X obj 484 727 translateXYZ;
#X floatatom 650 596 5 0 0 0 - - -;
#X floatatom 695 597 5 0 0 0 - - -;
#X floatatom 738 598 5 0 0 0 - - -;
#X floatatom 544 838 5 0 0 0 - - -;
#X obj 488 815 color;
#X msg 365 807 draw fill;
#X obj 452 535 gemhead;
#X obj 501 903 cuboid;
#X floatatom 578 842 5 0 0 0 - - -;
#X floatatom 616 847 5 0 0 0 - - -;
#X msg 606 792 0.5;
#X obj 485 604 +;
#X obj 535 629 +;
#X obj 567 647 +;
#X obj 695 643 +;
#X msg 555 761 1 1 1;
#X obj 841 691 rotateXYZ;
#X floatatom 829 574 5 0 0 0 - - -;
#X floatatom 882 589 5 0 0 0 - - -;
#X floatatom 928 591 5 0 0 0 - - -;
#X msg 755 730 draw line;
#X obj 834 733 translateXYZ;
#X floatatom 1000 602 5 0 0 0 - - -;
#X floatatom 1045 603 5 0 0 0 - - -;
#X floatatom 1088 604 5 0 0 0 - - -;
#X floatatom 894 844 5 0 0 0 - - -;
#X obj 838 821 color;
#X msg 715 813 draw fill;
#X obj 802 541 gemhead;
#X obj 851 909 cuboid;
#X floatatom 928 848 5 0 0 0 - - -;
#X floatatom 966 853 5 0 0 0 - - -;
#X msg 956 798 0.5;
#X obj 835 610 +;
#X obj 885 635 +;
#X obj 917 653 +;
#X obj 1045 649 +;
#X msg 905 767 1 1 1;
#X obj 107 1092 rotateXYZ;
#X floatatom 95 975 5 0 0 0 - - -;
#X floatatom 148 990 5 0 0 0 - - -;
#X floatatom 194 992 5 0 0 0 - - -;
#X msg 21 1131 draw line;
#X obj 100 1134 translateXYZ;
#X floatatom 266 1003 5 0 0 0 - - -;
#X floatatom 311 1004 5 0 0 0 - - -;
#X floatatom 354 1005 5 0 0 0 - - -;
#X floatatom 160 1245 5 0 0 0 - - -;
#X obj 104 1222 color;
#X msg -19 1214 draw fill;
#X obj 68 942 gemhead;
#X obj 117 1310 cuboid;
#X floatatom 194 1249 5 0 0 0 - - -;
#X floatatom 232 1254 5 0 0 0 - - -;
#X msg 222 1199 0.5;
#X obj 101 1011 +;
#X obj 151 1036 +;
#X obj 183 1054 +;
#X obj 266 1048 +;
#X obj 311 1050 +;
#X msg 171 1168 1 1 1;
#X obj 469 1080 rotateXYZ;
#X floatatom 457 963 5 0 0 0 - - -;
#X floatatom 510 978 5 0 0 0 - - -;
#X floatatom 556 980 5 0 0 0 - - -;
#X msg 383 1119 draw line;
#X obj 462 1122 translateXYZ;
#X floatatom 628 991 5 0 0 0 - - -;
#X floatatom 673 992 5 0 0 0 - - -;
#X floatatom 716 993 5 0 0 0 - - -;
#X floatatom 522 1233 5 0 0 0 - - -;
#X obj 466 1210 color;
#X msg 343 1202 draw fill;
#X obj 430 930 gemhead;
#X obj 479 1298 cuboid;
#X floatatom 556 1237 5 0 0 0 - - -;
#X floatatom 594 1242 5 0 0 0 - - -;
#X msg 584 1187 0.5;
#X obj 463 999 +;
#X obj 513 1024 +;
#X obj 545 1042 +;
#X obj 673 1038 +;
#X msg 533 1156 1 1 1;
#X obj 819 1086 rotateXYZ;
#X floatatom 807 969 5 0 0 0 - - -;
#X floatatom 860 984 5 0 0 0 - - -;
#X floatatom 906 986 5 0 0 0 - - -;
#X msg 733 1125 draw line;
#X obj 812 1128 translateXYZ;
#X floatatom 978 997 5 0 0 0 - - -;
#X floatatom 1023 998 5 0 0 0 - - -;
#X floatatom 1066 999 5 0 0 0 - - -;
#X floatatom 872 1239 5 0 0 0 - - -;
#X obj 816 1216 color;
#X msg 693 1208 draw fill;
#X obj 780 936 gemhead;
#X obj 829 1304 cuboid;
#X floatatom 914 1244 5 0 0 0 - - -;
#X floatatom 958 1242 5 0 0 0 - - -;
#X msg 934 1193 0.5;
#X obj 813 1005 +;
#X obj 863 1030 +;
#X obj 895 1048 +;
#X obj 1023 1044 +;
#X msg 883 1162 1 1 1;
#X floatatom 327 44 5 0 0 0 - - -;
#X obj 178 240 +;
#X obj 1055 271 + 3;
#X msg 1055 176 0;
#X obj 705 265 + 1.5;
#X msg 705 170 0;
#X msg 347 549 0;
#X obj 376 658 - 1.5;
#X obj 650 641 + 1.5;
#X msg 650 546 0;
#X obj 738 646 - 1.5;
#X msg 721 536 0;
#X obj 1000 647 + 3;
#X obj 1088 652 - 1.5;
#X msg 1062 545 0;
#X msg 1000 552 0;
#X obj 354 1053 - 3;
#X obj 628 1036 + 1.5;
#X msg 325 944 0;
#X msg 628 941 0;
#X msg 699 931 0;
#X obj 716 1041 - 3;
#X obj 978 1042 + 3;
#X obj 1066 1047 - 3;
#X msg 1040 940 0;
#X msg 978 947 0;
#X floatatom 386 44 5 0 0 0 - - -;
#X floatatom 442 42 5 0 0 0 - - -;
#X floatatom 653 30 5 0 0 0 - - -;
#X floatatom 710 35 5 0 0 0 - - -;
#X floatatom 767 33 5 0 0 0 - - -;
#X msg 551 386 0 1 0;
#X msg 901 392 0 0 1;
#X msg 134 774 1 1 0;
#X msg 496 762 1 0 1;
#X msg 846 768 0 1 1;
#X msg 474 1157 1 0 0.5;
#X msg 824 1163 0 0 0.5;
#X msg 89 1172 1 1 0.5;
#X obj 324 10 line;
#X msg 224 -15 0 3000;
#X floatatom 1239 55 5 0 0 0 - - -;
#X obj 1240 187 bng 15 250 50 0 empty empty empty 17 7 0 10 -262144
-1 -1;
#X obj 1230 -16 notein;
#X floatatom 1205 250 5 0 0 0 - - -;
#X obj 1204 219 counter 1 2;
#X obj 1199 286 route 1 2;
#X obj 1198 329 bng 15 250 50 0 empty empty empty 17 7 0 10 -262144
-1 -1;
#X obj 1226 331 bng 15 250 50 0 empty empty empty 17 7 0 10 -262144
-1 -1;
#X msg 567 -29 -1 2000;
#X obj 597 1 line;
#X msg 710 -21 -1 2000;
#X msg 774 -23 1 2000;
#X obj 712 7 line;
#X obj 774 7 line;
#X msg 322 -28 50 3000;
#X obj 1296 309 bng 15 250 50 0 empty empty empty 17 7 0 10 -262144
-1 -1;
#X floatatom 1261 372 5 0 0 0 - - -;
#X obj 1260 341 counter 1 2;
#X obj 1255 408 route 1 2;
#X obj 1254 451 bng 15 250 50 0 empty empty empty 17 7 0 10 -262144
-1 -1;
#X obj 1283 460 bng 15 250 50 0 empty empty empty 17 7 0 10 -262144
-1 -1;
#X obj 1378 378 bng 15 250 50 0 empty empty empty 17 7 0 10 -262144
-1 -1;
#X floatatom 1343 441 5 0 0 0 - - -;
#X obj 1342 410 counter 1 2;
#X obj 1337 477 route 1 2;
#X obj 1336 520 bng 15 250 50 0 empty empty empty 17 7 0 10 -262144
-1 -1;
#X obj 1364 522 bng 15 250 50 0 empty empty empty 17 7 0 10 -262144
-1 -1;
#X obj 1468 454 bng 15 250 50 0 empty empty empty 17 7 0 10 -262144
-1 -1;
#X floatatom 1433 517 5 0 0 0 - - -;
#X obj 1432 486 counter 1 2;
#X obj 1427 553 route 1 2;
#X obj 1426 596 bng 15 250 50 0 empty empty empty 17 7 0 10 -262144
-1 -1;
#X obj 1454 598 bng 15 250 50 0 empty empty empty 17 7 0 10 -262144
-1 -1;
#X obj 1552 507 bng 15 250 50 0 empty empty empty 17 7 0 10 -262144
-1 -1;
#X floatatom 1517 570 5 0 0 0 - - -;
#X obj 1516 539 counter 1 2;
#X obj 1511 606 route 1 2;
#X obj 1510 649 bng 15 250 50 0 empty empty empty 17 7 0 10 -262144
-1 -1;
#X obj 1532 653 bng 15 250 50 0 empty empty empty 17 7 0 10 -262144
-1 -1;
#X obj 1644 550 bng 15 250 50 0 empty empty empty 17 7 0 10 -262144
-1 -1;
#X floatatom 1609 613 5 0 0 0 - - -;
#X obj 1608 582 counter 1 2;
#X obj 1603 649 route 1 2;
#X obj 1602 692 bng 15 250 50 0 empty empty empty 17 7 0 10 -262144
-1 -1;
#X obj 1630 694 bng 15 250 50 0 empty empty empty 17 7 0 10 -262144
-1 -1;
#X obj 1240 134 route 60 62 64 65 67 69 71 72 74;
#X obj 1727 624 bng 15 250 50 0 empty empty empty 17 7 0 10 -262144
-1 -1;
#X floatatom 1692 687 5 0 0 0 - - -;
#X obj 1691 656 counter 1 2;
#X obj 1686 723 route 1 2;
#X obj 1685 766 bng 15 250 50 0 empty empty empty 17 7 0 10 -262144
-1 -1;
#X obj 1713 768 bng 15 250 50 0 empty empty empty 17 7 0 10 -262144
-1 -1;
#X obj 1811 677 bng 15 250 50 0 empty empty empty 17 7 0 10 -262144
-1 -1;
#X floatatom 1776 740 5 0 0 0 - - -;
#X obj 1775 709 counter 1 2;
#X obj 1770 776 route 1 2;
#X obj 1769 819 bng 15 250 50 0 empty empty empty 17 7 0 10 -262144
-1 -1;
#X obj 1797 821 bng 15 250 50 0 empty empty empty 17 7 0 10 -262144
-1 -1;
#X obj 1903 720 bng 15 250 50 0 empty empty empty 17 7 0 10 -262144
-1 -1;
#X floatatom 1868 783 5 0 0 0 - - -;
#X obj 1867 752 counter 1 2;
#X obj 1862 819 route 1 2;
#X obj 1861 862 bng 15 250 50 0 empty empty empty 17 7 0 10 -262144
-1 -1;
#X obj 1889 864 bng 15 250 50 0 empty empty empty 17 7 0 10 -262144
-1 -1;
#X obj 1220 608 line;
#X obj 1144 1051 + 0.5;
#X msg 1227 557 0 1000;
#X obj 1282 707 line;
#X msg 1289 656 0 1000;
#X obj 1376 774 line;
#X msg 1383 723 0 1000;
#X obj 1444 719 line;
#X msg 1451 668 0 1000;
#X obj 1506 818 line;
#X msg 1513 767 0 1000;
#X obj 1600 885 line;
#X msg 1607 834 0 1000;
#X obj 1720 936 line;
#X msg 1727 885 0 1000;
#X obj 1782 1035 line;
#X msg 1789 984 0 1000;
#X obj 1859 1117 line;
#X msg 1883 1051 0 1000;
#X obj 1236 901 + 0.5;
#X obj 1291 936 + 0.5;
#X obj 1350 964 + 0.5;
#X obj 1401 992 + 0.5;
#X obj 1455 1025 + 0.5;
#X obj 1509 1072 + 0.5;
#X obj 1563 1106 + 0.5;
#X msg 1173 560 2 100;
#X msg 1235 659 2 100;
#X msg 1329 726 2 100;
#X msg 1397 671 2 100;
#X msg 1459 770 2 100;
#X msg 1553 837 2 100;
#X msg 1673 888 2 100;
#X msg 1735 987 2 100;
#X msg 1829 1054 2 100;
#X obj 1411 840 + 0.5;
#X obj 426 5 counter 0 360;
#X obj 428 -44 tgl 15 0 empty empty empty 17 7 0 10 -262144 -1 -1 1
1;
#X obj 390 16 bng 15 250 50 0 empty empty empty 17 7 0 10 -262144 -1
-1;
#X obj 426 -20 metro 100;
#X connect 0 0 5 0;
#X connect 1 0 210 0;
#X connect 2 0 23 0;
#X connect 3 0 24 0;
#X connect 4 0 19 0;
#X connect 5 0 10 0;
#X connect 6 0 25 0;
#X connect 7 0 26 0;
#X connect 8 0 27 0;
#X connect 9 0 19 1;
#X connect 10 0 19 0;
#X connect 11 0 10 1;
#X connect 12 0 19 0;
#X connect 14 0 13 0;
#X connect 15 0 13 0;
#X connect 16 0 13 0;
#X connect 17 0 13 0;
#X connect 18 0 0 0;
#X connect 20 0 19 2;
#X connect 21 0 19 3;
#X connect 22 0 9 0;
#X connect 22 0 20 0;
#X connect 22 0 21 0;
#X connect 23 0 0 2;
#X connect 24 0 0 3;
#X connect 25 0 5 1;
#X connect 26 0 5 2;
#X connect 27 0 5 3;
#X connect 28 0 10 1;
#X connect 29 0 34 0;
#X connect 30 0 46 0;
#X connect 31 0 47 0;
#X connect 32 0 48 0;
#X connect 33 0 42 0;
#X connect 34 0 39 0;
#X connect 35 0 213 0;
#X connect 36 0 49 0;
#X connect 37 0 50 0;
#X connect 38 0 42 1;
#X connect 39 0 42 0;
#X connect 40 0 42 0;
#X connect 41 0 29 0;
#X connect 43 0 42 2;
#X connect 44 0 42 3;
#X connect 45 0 38 0;
#X connect 45 0 43 0;
#X connect 45 0 44 0;
#X connect 46 0 29 1;
#X connect 47 0 29 2;
#X connect 48 0 29 3;
#X connect 49 0 34 2;
#X connect 50 0 34 3;
#X connect 51 0 39 1;
#X connect 52 0 57 0;
#X connect 53 0 69 0;
#X connect 54 0 70 0;
#X connect 55 0 71 0;
#X connect 56 0 65 0;
#X connect 57 0 62 0;
#X connect 58 0 211 0;
#X connect 59 0 72 0;
#X connect 60 0 73 0;
#X connect 61 0 65 1;
#X connect 62 0 65 0;
#X connect 63 0 65 0;
#X connect 64 0 52 0;
#X connect 66 0 65 2;
#X connect 67 0 65 3;
#X connect 68 0 61 0;
#X connect 68 0 66 0;
#X connect 68 0 67 0;
#X connect 69 0 52 1;
#X connect 70 0 52 2;
#X connect 71 0 52 3;
#X connect 72 0 57 2;
#X connect 73 0 57 3;
#X connect 74 0 62 1;
#X connect 75 0 80 0;
#X connect 76 0 92 0;
#X connect 77 0 93 0;
#X connect 78 0 94 0;
#X connect 79 0 88 0;
#X connect 80 0 85 0;
#X connect 81 0 95 0;
#X connect 82 0 96 0;
#X connect 83 0 216 0;
#X connect 84 0 88 1;
#X connect 85 0 88 0;
#X connect 86 0 88 0;
#X connect 87 0 75 0;
#X connect 89 0 88 2;
#X connect 90 0 88 3;
#X connect 91 0 84 0;
#X connect 91 0 89 0;
#X connect 91 0 90 0;
#X connect 92 0 75 1;
#X connect 93 0 75 2;
#X connect 94 0 75 3;
#X connect 95 0 80 1;
#X connect 96 0 80 2;
#X connect 97 0 85 1;
#X connect 98 0 103 0;
#X connect 99 0 115 0;
#X connect 100 0 116 0;
#X connect 101 0 117 0;
#X connect 102 0 111 0;
#X connect 103 0 108 0;
#X connect 104 0 217 0;
#X connect 105 0 118 0;
#X connect 106 0 219 0;
#X connect 107 0 111 1;
#X connect 108 0 111 0;
#X connect 109 0 111 0;
#X connect 110 0 98 0;
#X connect 112 0 111 2;
#X connect 113 0 111 3;
#X connect 114 0 107 0;
#X connect 114 0 112 0;
#X connect 114 0 113 0;
#X connect 115 0 98 1;
#X connect 116 0 98 2;
#X connect 117 0 98 3;
#X connect 118 0 103 2;
#X connect 119 0 108 1;
#X connect 120 0 125 0;
#X connect 121 0 137 0;
#X connect 122 0 138 0;
#X connect 123 0 139 0;
#X connect 124 0 133 0;
#X connect 125 0 130 0;
#X connect 126 0 221 0;
#X connect 127 0 140 0;
#X connect 128 0 222 0;
#X connect 129 0 133 1;
#X connect 130 0 133 0;
#X connect 131 0 133 0;
#X connect 132 0 120 0;
#X connect 134 0 133 2;
#X connect 135 0 133 3;
#X connect 136 0 129 0;
#X connect 136 0 134 0;
#X connect 136 0 135 0;
#X connect 137 0 120 1;
#X connect 138 0 120 2;
#X connect 139 0 120 3;
#X connect 140 0 125 2;
#X connect 141 0 130 1;
#X connect 142 0 147 0;
#X connect 143 0 159 0;
#X connect 144 0 160 0;
#X connect 145 0 161 0;
#X connect 146 0 155 0;
#X connect 147 0 152 0;
#X connect 148 0 162 0;
#X connect 149 0 163 0;
#X connect 150 0 225 0;
#X connect 151 0 155 1;
#X connect 152 0 155 0;
#X connect 153 0 155 0;
#X connect 154 0 142 0;
#X connect 156 0 155 2;
#X connect 157 0 155 3;
#X connect 158 0 151 0;
#X connect 158 0 156 0;
#X connect 158 0 157 0;
#X connect 159 0 142 1;
#X connect 160 0 142 2;
#X connect 161 0 142 3;
#X connect 162 0 147 1;
#X connect 163 0 147 2;
#X connect 164 0 152 1;
#X connect 165 0 170 0;
#X connect 166 0 182 0;
#X connect 167 0 183 0;
#X connect 168 0 184 0;
#X connect 169 0 178 0;
#X connect 170 0 175 0;
#X connect 171 0 226 0;
#X connect 172 0 185 0;
#X connect 173 0 230 0;
#X connect 174 0 178 1;
#X connect 175 0 178 0;
#X connect 176 0 178 0;
#X connect 177 0 165 0;
#X connect 179 0 178 2;
#X connect 180 0 178 3;
#X connect 181 0 174 0;
#X connect 181 0 179 0;
#X connect 181 0 180 0;
#X connect 182 0 165 1;
#X connect 183 0 165 2;
#X connect 184 0 165 3;
#X connect 185 0 170 2;
#X connect 186 0 175 1;
#X connect 187 0 192 0;
#X connect 188 0 204 0;
#X connect 189 0 205 0;
#X connect 190 0 206 0;
#X connect 191 0 200 0;
#X connect 192 0 197 0;
#X connect 193 0 231 0;
#X connect 194 0 207 0;
#X connect 195 0 232 0;
#X connect 196 0 200 1;
#X connect 197 0 200 0;
#X connect 198 0 200 0;
#X connect 199 0 187 0;
#X connect 201 0 200 2;
#X connect 202 0 200 3;
#X connect 203 0 196 0;
#X connect 203 0 201 0;
#X connect 203 0 202 0;
#X connect 204 0 187 1;
#X connect 205 0 187 2;
#X connect 206 0 187 3;
#X connect 207 0 192 2;
#X connect 208 0 197 1;
#X connect 209 0 1 0;
#X connect 209 0 30 0;
#X connect 209 0 53 0;
#X connect 209 0 76 0;
#X connect 209 0 99 0;
#X connect 209 0 121 0;
#X connect 209 0 143 0;
#X connect 209 0 166 0;
#X connect 209 0 188 0;
#X connect 210 0 0 1;
#X connect 211 0 57 1;
#X connect 212 0 58 0;
#X connect 213 0 34 1;
#X connect 214 0 35 0;
#X connect 215 0 83 0;
#X connect 216 0 80 3;
#X connect 217 0 103 1;
#X connect 218 0 104 0;
#X connect 219 0 103 3;
#X connect 220 0 106 0;
#X connect 221 0 125 1;
#X connect 222 0 125 3;
#X connect 223 0 128 0;
#X connect 224 0 126 0;
#X connect 225 0 147 3;
#X connect 226 0 170 1;
#X connect 227 0 150 0;
#X connect 228 0 171 0;
#X connect 229 0 173 0;
#X connect 230 0 170 3;
#X connect 231 0 192 1;
#X connect 232 0 192 3;
#X connect 233 0 195 0;
#X connect 234 0 193 0;
#X connect 235 0 2 0;
#X connect 235 0 31 0;
#X connect 235 0 54 0;
#X connect 235 0 77 0;
#X connect 235 0 100 0;
#X connect 235 0 122 0;
#X connect 235 0 144 0;
#X connect 235 0 167 0;
#X connect 235 0 189 0;
#X connect 236 0 3 0;
#X connect 236 0 32 0;
#X connect 236 0 55 0;
#X connect 236 0 78 0;
#X connect 236 0 101 0;
#X connect 236 0 123 0;
#X connect 236 0 145 0;
#X connect 236 0 168 0;
#X connect 236 0 190 0;
#X connect 237 0 6 0;
#X connect 237 0 35 0;
#X connect 237 0 58 0;
#X connect 237 0 81 0;
#X connect 237 0 104 0;
#X connect 237 0 126 0;
#X connect 237 0 148 0;
#X connect 237 0 171 0;
#X connect 237 0 193 0;
#X connect 238 0 7 0;
#X connect 238 0 36 0;
#X connect 238 0 59 0;
#X connect 238 0 82 0;
#X connect 238 0 105 0;
#X connect 238 0 127 0;
#X connect 238 0 149 0;
#X connect 238 0 172 0;
#X connect 238 0 194 0;
#X connect 239 0 8 0;
#X connect 239 0 37 0;
#X connect 239 0 60 0;
#X connect 239 0 83 0;
#X connect 239 0 106 0;
#X connect 239 0 128 0;
#X connect 239 0 150 0;
#X connect 239 0 173 0;
#X connect 239 0 195 0;
#X connect 240 0 39 1;
#X connect 241 0 62 1;
#X connect 242 0 85 1;
#X connect 243 0 108 1;
#X connect 244 0 130 1;
#X connect 245 0 175 1;
#X connect 246 0 197 1;
#X connect 247 0 152 1;
#X connect 248 0 209 0;
#X connect 249 0 248 0;
#X connect 250 0 295 0;
#X connect 251 0 254 0;
#X connect 252 0 250 0;
#X connect 253 0 255 0;
#X connect 254 0 253 0;
#X connect 255 0 256 0;
#X connect 255 1 257 0;
#X connect 256 0 340 0;
#X connect 257 0 316 0;
#X connect 258 0 259 0;
#X connect 259 0 237 0;
#X connect 260 0 262 0;
#X connect 261 0 263 0;
#X connect 262 0 238 0;
#X connect 263 0 239 0;
#X connect 264 0 248 0;
#X connect 265 0 267 0;
#X connect 266 0 268 0;
#X connect 267 0 266 0;
#X connect 268 0 269 0;
#X connect 268 1 270 0;
#X connect 269 0 341 0;
#X connect 270 0 318 0;
#X connect 271 0 273 0;
#X connect 272 0 274 0;
#X connect 273 0 272 0;
#X connect 274 0 275 0;
#X connect 274 1 276 0;
#X connect 275 0 342 0;
#X connect 276 0 320 0;
#X connect 277 0 279 0;
#X connect 278 0 280 0;
#X connect 279 0 278 0;
#X connect 280 0 281 0;
#X connect 280 1 282 0;
#X connect 281 0 343 0;
#X connect 282 0 322 0;
#X connect 283 0 285 0;
#X connect 284 0 286 0;
#X connect 285 0 284 0;
#X connect 286 0 287 0;
#X connect 286 1 288 0;
#X connect 287 0 344 0;
#X connect 288 0 324 0;
#X connect 289 0 291 0;
#X connect 290 0 292 0;
#X connect 291 0 290 0;
#X connect 292 0 293 0;
#X connect 292 1 294 0;
#X connect 293 0 345 0;
#X connect 294 0 326 0;
#X connect 295 0 251 0;
#X connect 295 1 265 0;
#X connect 295 2 271 0;
#X connect 295 3 277 0;
#X connect 295 4 283 0;
#X connect 295 5 289 0;
#X connect 295 6 296 0;
#X connect 295 7 302 0;
#X connect 295 8 308 0;
#X connect 296 0 298 0;
#X connect 297 0 299 0;
#X connect 298 0 297 0;
#X connect 299 0 300 0;
#X connect 299 1 301 0;
#X connect 300 0 346 0;
#X connect 301 0 328 0;
#X connect 302 0 304 0;
#X connect 303 0 305 0;
#X connect 304 0 303 0;
#X connect 305 0 306 0;
#X connect 305 1 307 0;
#X connect 306 0 347 0;
#X connect 307 0 330 0;
#X connect 308 0 310 0;
#X connect 309 0 311 0;
#X connect 310 0 309 0;
#X connect 311 0 312 0;
#X connect 311 1 313 0;
#X connect 312 0 348 0;
#X connect 313 0 332 0;
#X connect 314 0 315 0;
#X connect 315 0 201 0;
#X connect 316 0 314 0;
#X connect 317 0 333 0;
#X connect 318 0 317 0;
#X connect 319 0 334 0;
#X connect 320 0 319 0;
#X connect 321 0 349 0;
#X connect 322 0 321 0;
#X connect 323 0 335 0;
#X connect 324 0 323 0;
#X connect 325 0 336 0;
#X connect 326 0 325 0;
#X connect 327 0 337 0;
#X connect 328 0 327 0;
#X connect 329 0 338 0;
#X connect 330 0 329 0;
#X connect 331 0 339 0;
#X connect 332 0 331 0;
#X connect 333 0 112 0;
#X connect 334 0 66 0;
#X connect 335 0 179 0;
#X connect 336 0 20 0;
#X connect 337 0 156 0;
#X connect 338 0 134 0;
#X connect 339 0 89 0;
#X connect 340 0 314 0;
#X connect 341 0 317 0;
#X connect 342 0 319 0;
#X connect 343 0 321 0;
#X connect 344 0 323 0;
#X connect 345 0 325 0;
#X connect 346 0 327 0;
#X connect 347 0 329 0;
#X connect 348 0 331 0;
#X connect 349 0 43 0;
#X connect 350 0 352 0;
#X connect 350 0 235 0;
#X connect 351 0 353 0;
#X connect 353 0 350 0;
