#N canvas 2 87 1001 991 12;
#X obj 34 45 gemwin;
#X msg 42 -50 create;
#X msg 53 -22 destroy;
#X obj 22 -20 tgl 15 0 empty empty empty 17 7 0 10 -262144 -1 -1 1
1;
#X obj 119 105 gemhead;
#X obj 119 224 rotateXYZ;
#X floatatom 146 146 5 0 0 0 - - -;
#X floatatom 194 148 5 0 0 0 - - -;
#X floatatom 238 149 5 0 0 0 - - -;
#X msg 40 246 draw line;
#X msg 27 291 draw fill;
#X obj 137 284 translateXYZ;
#X obj 137 361 color;
#X msg 145 309 1 0 0, f 6;
#X obj 163 -58 tgl 15 0 empty empty empty 17 7 0 10 -262144 -1 -1 1
1;
#X obj 163 -3 bng 15 250 50 0 empty empty empty 17 7 0 10 -262144 -1
-1;
#X obj 163 19 counter 0 360;
#X floatatom 183 66 5 0 0 0 - - -;
#X msg 172 333 1 1 1;
#X floatatom 334 23 5 0 0 0 - - -;
#X obj 282 -12 random 36;
#X obj 251 50 s random36Out;
#X obj 294 -53 bng 15 250 50 0 empty empty empty 17 7 0 10 -262144
-1 -1;
#X obj 561 -4 hid;
#X obj 585 29 print;
#X msg 606 -41 print;
#X obj 561 54 route key abs;
#X obj 564 296 tgl 15 0 empty empty empty 17 7 0 10 -262144 -1 -1 0
1;
#X obj 604 298 tgl 15 0 empty empty empty 17 7 0 10 -262144 -1 -1 0
1;
#X obj 529 -40 tgl 15 0 empty empty empty 17 7 0 10 -262144 -1 -1 1
1;
#X obj 758 303 tgl 15 0 empty empty empty 17 7 0 10 -262144 -1 -1 0
1;
#X obj 722 303 tgl 15 0 empty empty empty 17 7 0 10 -262144 -1 -1 0
1;
#X obj 683 304 tgl 15 0 empty empty empty 17 7 0 10 -262144 -1 -1 0
1;
#X obj 563 262 route btn_0 btn_1 btn_2 btn_3 btn_4 btn_6 btn_7;
#X obj 795 303 tgl 15 0 empty empty empty 17 7 0 10 -262144 -1 -1 0
1;
#X obj 830 303 tgl 15 0 empty empty empty 17 7 0 10 -262144 -1 -1 0
1;
#X obj 624 89 route abs_x abs_y abs_rx abs_ry;
#X floatatom 629 131 5 0 0 0 - - -;
#X floatatom 683 135 5 0 0 0 - - -;
#X floatatom 755 133 5 0 0 0 - - -;
#X floatatom 823 130 5 0 0 0 - - -;
#X msg 554 -42 open 16;
#X obj 137 428 cuboid, f 12;
#X floatatom 250 323 5 0 0 0 - - -;
#X floatatom 348 313 5 0 0 0 - - -;
#X floatatom 295 318 5 0 0 0 - - -;
#X floatatom 634 221 5 0 0 0 - - -;
#X floatatom 695 222 5 0 0 0 - - -;
#X floatatom 774 215 5 0 0 0 - - -;
#X floatatom 828 220 5 0 0 0 - - -;
#X msg 66 9 dimen 800 600;
#X obj 195 366 +;
#X obj 227 366 +;
#X obj 259 366 +;
#X msg 342 239 0.3, f 13;
#X obj 163 -33 metro 60;
#X obj 626 171 / 22000;
#X obj 702 178 / 22000;
#X obj 774 184 / 22000;
#X obj 840 178 / 22000;
#X floatatom 250 207 5 0 0 0 - - -;
#X floatatom 348 197 5 0 0 0 - - -;
#X floatatom 295 202 5 0 0 0 - - -;
#X obj 195 250 +;
#X obj 227 250 +;
#X floatatom 282 122 5 0 0 0 - - -;
#X msg 342 123 0, f 13;
#X obj 259 250 + 1;
#X msg 156 496 draw line;
#X msg 143 541 draw fill;
#X obj 253 534 translateXYZ;
#X obj 253 611 color;
#X msg 288 583 1 1 1;
#X obj 253 678 cuboid, f 12;
#X floatatom 366 573 5 0 0 0 - - -;
#X floatatom 464 563 5 0 0 0 - - -;
#X floatatom 411 568 5 0 0 0 - - -;
#X obj 311 616 +;
#X obj 343 616 +;
#X obj 375 616 +;
#X floatatom 366 457 5 0 0 0 - - -;
#X floatatom 464 447 5 0 0 0 - - -;
#X floatatom 411 452 5 0 0 0 - - -;
#X obj 311 500 +;
#X obj 343 500 +;
#X floatatom 398 372 5 0 0 0 - - -;
#X msg 458 373 0, f 13;
#X obj 375 500 + 1;
#X floatatom 379 528 5 0 0 0 - - -;
#X msg 458 489 0.6, f 13;
#X msg 444 618 draw line;
#X msg 431 663 draw fill;
#X obj 541 656 translateXYZ;
#X obj 541 733 color;
#X msg 576 705 1 1 1;
#X obj 541 800 cuboid, f 12;
#X floatatom 654 695 5 0 0 0 - - -;
#X floatatom 752 685 5 0 0 0 - - -;
#X floatatom 699 690 5 0 0 0 - - -;
#X obj 599 738 +;
#X obj 631 738 +;
#X obj 663 738 +;
#X floatatom 654 579 5 0 0 0 - - -;
#X floatatom 752 569 5 0 0 0 - - -;
#X floatatom 699 574 5 0 0 0 - - -;
#X obj 599 622 +;
#X obj 631 622 +;
#X floatatom 686 494 5 0 0 0 - - -;
#X msg 746 495 0, f 13;
#X obj 663 622 + 1;
#X floatatom 667 650 5 0 0 0 - - -;
#X msg 746 611 0.8, f 13;
#X msg 70 847 draw line;
#X msg 57 892 draw fill;
#X obj 167 885 translateXYZ;
#X obj 167 962 color;
#X msg 202 934 1 1 1;
#X obj 167 1029 cuboid, f 12;
#X floatatom 280 924 5 0 0 0 - - -;
#X floatatom 378 914 5 0 0 0 - - -;
#X floatatom 325 919 5 0 0 0 - - -;
#X obj 225 967 +;
#X obj 257 967 +;
#X obj 289 967 +;
#X floatatom 280 808 5 0 0 0 - - -;
#X floatatom 378 798 5 0 0 0 - - -;
#X floatatom 325 803 5 0 0 0 - - -;
#X obj 225 851 +;
#X obj 257 851 +;
#X floatatom 312 723 5 0 0 0 - - -;
#X msg 372 724 0, f 13;
#X obj 289 851 + 1;
#X floatatom 293 879 5 0 0 0 - - -;
#X msg 372 840 1, f 13;
#X msg 261 559 0 1 0, f 6;
#X msg 549 681 0 0 1, f 6;
#X msg 175 910 1 0 1, f 6;
#X connect 1 0 0 0;
#X connect 2 0 0 0;
#X connect 3 0 0 0;
#X connect 4 0 5 0;
#X connect 5 0 11 0;
#X connect 5 0 70 0;
#X connect 5 0 92 0;
#X connect 5 0 114 0;
#X connect 6 0 5 1;
#X connect 7 0 5 2;
#X connect 8 0 5 3;
#X connect 9 0 42 0;
#X connect 10 0 42 0;
#X connect 11 0 12 0;
#X connect 12 0 42 0;
#X connect 13 0 12 1;
#X connect 14 0 55 0;
#X connect 15 0 16 0;
#X connect 16 0 17 0;
#X connect 17 0 6 0;
#X connect 17 0 7 0;
#X connect 17 0 8 0;
#X connect 18 0 12 1;
#X connect 20 0 21 0;
#X connect 20 0 19 0;
#X connect 22 0 20 0;
#X connect 23 0 24 0;
#X connect 23 0 26 0;
#X connect 25 0 23 0;
#X connect 26 0 33 0;
#X connect 26 1 36 0;
#X connect 29 0 23 0;
#X connect 33 0 27 0;
#X connect 33 1 28 0;
#X connect 33 3 32 0;
#X connect 33 4 31 0;
#X connect 33 5 30 0;
#X connect 33 6 34 0;
#X connect 33 7 35 0;
#X connect 36 0 37 0;
#X connect 36 1 38 0;
#X connect 36 2 39 0;
#X connect 36 3 40 0;
#X connect 37 0 56 0;
#X connect 38 0 57 0;
#X connect 39 0 58 0;
#X connect 40 0 59 0;
#X connect 41 0 23 0;
#X connect 43 0 51 1;
#X connect 44 0 53 1;
#X connect 45 0 52 1;
#X connect 46 0 51 0;
#X connect 46 0 79 0;
#X connect 46 0 100 0;
#X connect 47 0 52 0;
#X connect 47 0 99 0;
#X connect 47 0 121 0;
#X connect 48 0 53 0;
#X connect 48 0 78 0;
#X connect 48 0 101 0;
#X connect 48 0 122 0;
#X connect 49 0 77 0;
#X connect 49 0 123 0;
#X connect 50 0 0 0;
#X connect 51 0 42 1;
#X connect 52 0 42 2;
#X connect 53 0 42 3;
#X connect 54 0 43 0;
#X connect 54 0 45 0;
#X connect 54 0 44 0;
#X connect 55 0 15 0;
#X connect 55 0 22 0;
#X connect 56 0 46 0;
#X connect 57 0 47 0;
#X connect 58 0 48 0;
#X connect 59 0 49 0;
#X connect 60 0 63 1;
#X connect 61 0 67 1;
#X connect 62 0 64 1;
#X connect 63 0 11 1;
#X connect 64 0 11 2;
#X connect 65 0 63 0;
#X connect 65 0 64 0;
#X connect 65 0 67 0;
#X connect 66 0 60 0;
#X connect 66 0 62 0;
#X connect 66 0 61 0;
#X connect 67 0 11 3;
#X connect 68 0 73 0;
#X connect 69 0 73 0;
#X connect 70 0 71 0;
#X connect 71 0 73 0;
#X connect 72 0 71 1;
#X connect 74 0 77 1;
#X connect 75 0 79 1;
#X connect 76 0 78 1;
#X connect 77 0 73 1;
#X connect 78 0 73 2;
#X connect 79 0 73 3;
#X connect 80 0 83 1;
#X connect 81 0 87 1;
#X connect 82 0 84 1;
#X connect 83 0 70 1;
#X connect 84 0 70 2;
#X connect 85 0 83 0;
#X connect 85 0 84 0;
#X connect 85 0 87 0;
#X connect 86 0 80 0;
#X connect 86 0 82 0;
#X connect 86 0 81 0;
#X connect 87 0 70 3;
#X connect 88 0 77 0;
#X connect 88 0 78 0;
#X connect 88 0 79 0;
#X connect 89 0 74 0;
#X connect 89 0 76 0;
#X connect 89 0 75 0;
#X connect 90 0 95 0;
#X connect 91 0 95 0;
#X connect 92 0 93 0;
#X connect 93 0 95 0;
#X connect 94 0 93 1;
#X connect 96 0 99 1;
#X connect 97 0 101 1;
#X connect 98 0 100 1;
#X connect 99 0 95 1;
#X connect 100 0 95 2;
#X connect 101 0 95 3;
#X connect 102 0 105 1;
#X connect 103 0 109 1;
#X connect 104 0 106 1;
#X connect 105 0 92 1;
#X connect 106 0 92 2;
#X connect 107 0 105 0;
#X connect 107 0 106 0;
#X connect 107 0 109 0;
#X connect 108 0 102 0;
#X connect 108 0 104 0;
#X connect 108 0 103 0;
#X connect 109 0 92 3;
#X connect 110 0 99 0;
#X connect 110 0 100 0;
#X connect 110 0 101 0;
#X connect 111 0 96 0;
#X connect 111 0 98 0;
#X connect 111 0 97 0;
#X connect 112 0 117 0;
#X connect 113 0 117 0;
#X connect 114 0 115 0;
#X connect 115 0 117 0;
#X connect 116 0 115 1;
#X connect 118 0 121 1;
#X connect 119 0 123 1;
#X connect 120 0 122 1;
#X connect 121 0 117 1;
#X connect 122 0 117 2;
#X connect 123 0 117 3;
#X connect 124 0 127 1;
#X connect 125 0 131 1;
#X connect 126 0 128 1;
#X connect 127 0 114 1;
#X connect 128 0 114 2;
#X connect 129 0 127 0;
#X connect 129 0 128 0;
#X connect 129 0 131 0;
#X connect 130 0 124 0;
#X connect 130 0 126 0;
#X connect 130 0 125 0;
#X connect 131 0 114 3;
#X connect 132 0 121 0;
#X connect 132 0 122 0;
#X connect 132 0 123 0;
#X connect 133 0 118 0;
#X connect 133 0 120 0;
#X connect 133 0 119 0;
#X connect 134 0 71 1;
#X connect 135 0 93 1;
#X connect 136 0 115 1;
