#N canvas 0 89 1920 991 10;
#X obj 127 43 hid;
#X obj 151 76 print;
#X msg 172 6 print;
#X msg 120 5 open 4;
#X obj 127 101 route key abs;
#X obj 129 251 tgl 15 0 empty empty empty 17 7 0 10 -262144 -1 -1 0
1;
#X obj 169 253 tgl 15 0 empty empty empty 17 7 0 10 -262144 -1 -1 0
1;
#X obj 95 7 tgl 15 0 empty empty empty 17 7 0 10 -262144 -1 -1 1 1
;
#X obj 323 258 tgl 15 0 empty empty empty 17 7 0 10 -262144 -1 -1 0
1;
#X obj 287 258 tgl 15 0 empty empty empty 17 7 0 10 -262144 -1 -1 0
1;
#X obj 248 259 tgl 15 0 empty empty empty 17 7 0 10 -262144 -1 -1 0
1;
#X obj 128 217 route btn_0 btn_1 btn_2 btn_3 btn_4 btn_6 btn_7;
#X obj 360 258 tgl 15 0 empty empty empty 17 7 0 10 -262144 -1 -1 0
1;
#X obj 395 258 tgl 15 0 empty empty empty 17 7 0 10 -262144 -1 -1 0
1;
#X msg 438 251 1 2 - 3 4 shL shR;
#X floatatom 191 165 5 0 0 0 - - -;
#X floatatom 245 169 5 0 0 0 - - -;
#X floatatom 292 169 5 0 0 0 - - -;
#X floatatom 333 171 5 0 0 0 - - -;
#X obj 669 209 soundfiler;
#X obj 434 49 openpanel;
#X obj 433 17 bng 15 250 50 0 empty empty empty 17 7 0 10 -262144 -1
-1;
#X obj 308 945 dac~ 1 2;
#X obj 465 540 *~;
#X obj 607 423 vsl 15 128 0 1 0 0 empty empty empty 0 -9 0 10 -258113
-1 -1 9200 1;
#N canvas 0 50 450 250 (subpatch) 0;
#X array kickL 555080 float 2;
#X coords 0 1 555080 -1 200 100 1 0 0;
#X restore 999 25 graph;
#N canvas 0 50 450 250 (subpatch) 0;
#X array kickR 555080 float 2;
#X coords 0 1 555080 -1 200 100 1 0 0;
#X restore 1211 24 graph;
#X obj 74 296 sel 1 0;
#X obj 50 322 t b b;
#X msg 93 341 1;
#X msg 51 346 1;
#X obj 51 376 spigot 1;
#X msg 434 72 read -resize \$1 kickL kickR;
#X obj 25 429 tabplay~ kickL;
#X obj 612 47 openpanel;
#X obj 611 15 bng 15 250 50 0 empty empty empty 17 7 0 10 -262144 -1
-1;
#X obj 808 48 openpanel;
#X obj 807 16 bng 15 250 50 0 empty empty empty 17 7 0 10 -262144 -1
-1;
#X obj 546 134 openpanel;
#X obj 545 102 bng 15 250 50 0 empty empty empty 17 7 0 10 -262144
-1 -1;
#X obj 746 134 openpanel;
#X obj 745 102 bng 15 250 50 0 empty empty empty 17 7 0 10 -262144
-1 -1;
#X msg 612 70 read -resize \$1 snareL snareR;
#X msg 808 71 read -resize \$1 clapL clapR;
#X msg 546 157 read -resize \$1 hatL hatR;
#X msg 746 157 read -resize \$1 loopL loopR;
#N canvas 0 50 450 250 (subpatch) 0;
#X array snareL 555080 float 2;
#X coords 0 1 555080 -1 200 100 1 0 0;
#X restore 1001 149 graph;
#N canvas 0 50 450 250 (subpatch) 0;
#X array snareR 555080 float 2;
#X coords 0 1 555080 -1 200 100 1 0 0;
#X restore 1213 148 graph;
#N canvas 0 50 450 250 (subpatch) 0;
#X array clapL 555080 float 2;
#X coords 0 1 555080 -1 200 100 1 0 0;
#X restore 1007 275 graph;
#N canvas 0 50 450 250 (subpatch) 0;
#X array clapR 555080 float 2;
#X coords 0 1 555080 -1 200 100 1 0 0;
#X restore 1219 274 graph;
#N canvas 0 50 450 250 (subpatch) 0;
#X array hatL 555080 float 2;
#X coords 0 1 555080 -1 200 100 1 0 0;
#X restore 1007 403 graph;
#N canvas 0 50 450 250 (subpatch) 0;
#X array hatR 555080 float 2;
#X coords 0 1 555080 -1 200 100 1 0 0;
#X restore 1219 402 graph;
#N canvas 0 50 450 250 (subpatch) 0;
#X array loopL 165375 float 2;
#X coords 0 1 165375 -1 200 100 1 0 0;
#X restore 1010 537 graph;
#N canvas 0 50 450 250 (subpatch) 0;
#X array loopR 165375 float 2;
#X coords 0 1 165375 -1 200 100 1 0 0;
#X restore 1222 536 graph;
#X obj 138 298 sel 1 0;
#X obj 133 329 t b b;
#X msg 176 329 1;
#X msg 134 353 1;
#X obj 135 379 spigot 1;
#X obj 209 295 sel 1 0;
#X obj 209 328 t b b;
#X msg 259 329 1;
#X msg 210 352 1;
#X obj 212 381 spigot 1;
#X obj 297 294 sel 1 0;
#X obj 297 323 t b b;
#X msg 347 324 1;
#X msg 298 347 1;
#X obj 300 381 spigot 1;
#X obj 386 293 sel 1 0;
#X obj 386 321 t b b;
#X msg 436 322 1;
#X msg 387 345 1;
#X obj 387 381 spigot 1;
#X obj 137 435 tabplay~ snareL;
#X obj 342 436 tabplay~ hatL;
#X obj 445 436 tabplay~ loopL;
#X obj 240 436 tabplay~ clapL;
#X obj 547 439 spigot;
#X obj 575 409 tgl 15 0 empty empty empty 17 7 0 10 -262144 -1 -1 0
1;
#X obj 471 288 sel 1 0;
#X obj 472 322 t b b;
#X msg 473 346 1;
#X obj 471 380 spigot 1;
#X msg 522 323 0;
#X obj 440 706 freeverb~;
#X msg 539 722 wet \$1;
#X obj 543 697 hsl 128 15 0 1 0 0 empty empty empty -2 -8 0 10 -262144
-1 -1 0 1;
#X obj 543 750 hsl 128 15 0 1 0 0 empty empty empty -2 -8 0 10 -262144
-1 -1 6200 1;
#X msg 539 774 dry \$1;
#X obj 540 809 hsl 128 15 0 1 0 0 empty empty empty -2 -8 0 10 -262144
-1 -1 6400 1;
#X msg 538 831 roomsize \$1;
#X obj 191 193 s x1;
#X floatatom 543 671 5 0 0 0 - - -;
#X obj 548 639 /;
#X floatatom 596 621 5 35000 56000 0 - - -;
#X obj 749 706 vd~ delay1;
#X obj 777 666 sig~;
#X floatatom 777 632 5 0 0 0 - - -;
#X obj 866 621 *~;
#X obj 950 520 vsl 15 128 0 1 0 0 empty empty empty 0 -9 0 10 -258113
-1 -1 9100 1;
#X obj 553 605 r x1;
#X floatatom 854 729 5 0 0 0 - - -;
#X obj 854 694 /;
#X floatatom 897 660 5 35000 36000 0 - - -;
#X obj 854 659 r x2;
#X obj 273 194 s x2;
#X obj 797 570 delwrite~ delay1 2000;
#X obj 674 845 *~;
#X obj 188 130 route abs_x abs_y abs_rx abs_ry abs_z abs_rz;
#X floatatom 379 173 5 0 0 0 - - -;
#X floatatom 422 171 5 0 0 0 - - -;
#X obj 378 196 s trigLeft;
#X obj 451 200 s trigRight;
#X obj 675 632 /;
#X obj 642 585 r trigLeft;
#X msg 716 584 270;
#X floatatom 674 656 5 0 0 0 - - -;
#X obj 954 745 /;
#X msg 995 697 270;
#X floatatom 953 769 5 0 0 0 - - -;
#X obj 921 698 r trigRight;
#X obj 421 889 hip~;
#X floatatom 451 850 5 0 0 0 - - -;
#X msg 465 815 500;
#X connect 0 0 1 0;
#X connect 0 0 4 0;
#X connect 2 0 0 0;
#X connect 3 0 0 0;
#X connect 4 0 11 0;
#X connect 4 1 109 0;
#X connect 5 0 27 0;
#X connect 6 0 54 0;
#X connect 7 0 0 0;
#X connect 8 0 69 0;
#X connect 9 0 64 0;
#X connect 10 0 59 0;
#X connect 11 0 5 0;
#X connect 11 1 6 0;
#X connect 11 3 10 0;
#X connect 11 4 9 0;
#X connect 11 5 8 0;
#X connect 11 6 12 0;
#X connect 11 7 13 0;
#X connect 12 0 80 0;
#X connect 15 0 92 0;
#X connect 16 0 106 0;
#X connect 20 0 32 0;
#X connect 21 0 20 0;
#X connect 23 0 85 0;
#X connect 23 0 85 1;
#X connect 23 0 107 0;
#X connect 24 0 23 1;
#X connect 27 0 28 0;
#X connect 27 1 29 0;
#X connect 28 0 30 0;
#X connect 28 1 31 0;
#X connect 29 0 31 1;
#X connect 30 0 31 1;
#X connect 31 0 33 0;
#X connect 32 0 19 0;
#X connect 33 0 23 0;
#X connect 34 0 42 0;
#X connect 35 0 34 0;
#X connect 36 0 43 0;
#X connect 37 0 36 0;
#X connect 38 0 44 0;
#X connect 39 0 38 0;
#X connect 40 0 45 0;
#X connect 41 0 40 0;
#X connect 42 0 19 0;
#X connect 43 0 19 0;
#X connect 44 0 19 0;
#X connect 45 0 19 0;
#X connect 54 0 55 0;
#X connect 54 1 56 0;
#X connect 55 0 57 0;
#X connect 55 1 58 0;
#X connect 56 0 58 1;
#X connect 57 0 58 1;
#X connect 58 0 74 0;
#X connect 59 0 60 0;
#X connect 59 1 61 0;
#X connect 60 0 62 0;
#X connect 60 1 63 0;
#X connect 61 0 63 1;
#X connect 62 0 63 1;
#X connect 63 0 77 0;
#X connect 64 0 65 0;
#X connect 64 1 66 0;
#X connect 65 0 67 0;
#X connect 65 1 68 0;
#X connect 66 0 68 1;
#X connect 67 0 68 1;
#X connect 68 0 75 0;
#X connect 69 0 70 0;
#X connect 69 1 71 0;
#X connect 70 0 72 0;
#X connect 70 1 73 0;
#X connect 71 0 73 1;
#X connect 72 0 73 1;
#X connect 73 0 76 0;
#X connect 74 0 23 0;
#X connect 75 0 23 0;
#X connect 76 0 122 0;
#X connect 76 1 78 0;
#X connect 77 0 23 0;
#X connect 78 0 76 0;
#X connect 79 0 78 1;
#X connect 80 0 81 0;
#X connect 80 1 84 0;
#X connect 81 0 82 0;
#X connect 81 1 83 0;
#X connect 82 0 83 1;
#X connect 83 0 79 0;
#X connect 84 0 83 1;
#X connect 85 0 122 0;
#X connect 86 0 85 0;
#X connect 87 0 86 0;
#X connect 88 0 89 0;
#X connect 89 0 85 0;
#X connect 90 0 91 0;
#X connect 91 0 85 0;
#X connect 93 0 87 0;
#X connect 94 0 93 0;
#X connect 95 0 94 1;
#X connect 96 0 99 0;
#X connect 96 0 108 0;
#X connect 97 0 96 0;
#X connect 98 0 97 0;
#X connect 99 0 107 0;
#X connect 100 0 99 1;
#X connect 101 0 94 0;
#X connect 102 0 108 1;
#X connect 103 0 102 0;
#X connect 104 0 103 1;
#X connect 105 0 103 0;
#X connect 108 0 122 0;
#X connect 109 0 15 0;
#X connect 109 1 16 0;
#X connect 109 2 17 0;
#X connect 109 3 18 0;
#X connect 109 4 110 0;
#X connect 109 5 111 0;
#X connect 110 0 112 0;
#X connect 111 0 113 0;
#X connect 114 0 117 0;
#X connect 115 0 114 0;
#X connect 115 0 123 0;
#X connect 116 0 114 1;
#X connect 117 0 87 0;
#X connect 118 0 120 0;
#X connect 119 0 118 1;
#X connect 120 0 108 1;
#X connect 121 0 118 0;
#X connect 122 0 22 0;
#X connect 122 0 22 1;
#X connect 123 0 122 1;
#X connect 124 0 123 0;
