#N canvas 0 89 1920 991 12;
#X obj 1625 648 gemwin;
#X msg 1581 558 create;
#X msg 1592 586 destroy;
#X obj 1561 588 tgl 15 0 empty empty empty 17 7 0 10 -262144 -1 -1
1 1;
#X msg 1659 561 dimen 1000 800;
#X msg 1692 615 lighting \$1;
#X obj 1692 593 tgl 15 0 empty empty empty 0 -6 0 8 -262144 -1 -1 0
1;
#X obj 1398 460 camera;
#X msg 1478 339 lookX \$1;
#X msg 1476 392 lookY \$1;
#X msg 1476 445 lookZ \$1;
#X floatatom 1478 310 5 0 0 0 - - -;
#X floatatom 1476 419 5 0 0 0 - - -;
#X floatatom 1477 362 5 0 0 0 - - -;
#X msg 1387 384 speed \$1;
#X floatatom 1387 363 5 0 0 0 - - -;
#X floatatom 1314 401 5 0 0 0 - - -;
#X msg 1314 419 distance \$1;
#X obj 1564 302 tgl 15 0 empty empty empty 0 -6 0 8 -262144 -1 -1 0
1;
#X msg 1567 330 right \$1;
#X msg 1579 365 reset;
#X obj 1400 327 gemhead;
#X msg 1354 321 10;
#X msg 1246 321 1;
#X msg 1280 320 4;
#X obj 1469 256 vsl 15 40 -3 3 0 0 empty empty empty 0 -9 0 10 -262144
-1 -1 1820 1;
#X obj 1500 248 vsl 15 40 -3 3 0 0 empty empty empty 0 -9 0 10 -262144
-1 -1 2037 1;
#X obj 1526 256 vsl 15 40 -3 3 0 0 empty empty empty 0 -9 0 10 -262144
-1 -1 1755 1;
#X obj 1650 297 tgl 15 0 empty empty empty 0 -6 0 8 -262144 -1 -1 0
1;
#X msg 1653 325 left \$1;
#X msg 1245 363 -10;
#X obj 146 183 gemhead;
#X obj 265 7 bng 15 250 50 0 empty empty empty 0 -6 0 8 -262144 -1
-1;
#N canvas 0 0 450 300 openpanel 0;
#X obj 114 62 inlet;
#X obj 121 254 outlet;
#X obj 114 125 openpanel;
#X msg 114 162 set open \$1;
#X obj 114 199 t b a;
#X connect 0 0 2 0;
#X connect 2 0 3 0;
#X connect 3 0 4 0;
#X connect 4 0 1 0;
#X connect 4 1 1 0;
#X restore 265 28 pd openpanel;
#X msg 263 80 open /home/casper/SB1.jpg;
#X obj 517 369 pix_image;
#X obj 681 655 translateXYZ;
#X floatatom 713 603 5 0 0 0 - - -;
#X obj 719 550 vsl 15 40 0 1 0 0 empty empty empty 0 -9 0 10 -262144
-1 -1 0 1;
#X floatatom 762 612 5 0 0 0 - - -;
#X obj 768 559 vsl 15 40 0 1 0 0 empty empty empty 0 -9 0 10 -262144
-1 -1 0 1;
#X floatatom 806 622 5 0 0 0 - - -;
#X obj 812 569 vsl 15 40 0 1 0 0 empty empty empty 0 -9 0 10 -262144
-1 -1 0 1;
#X obj 563 600 rotateXYZ;
#X floatatom 412 557 5 0 0 0 - - -;
#X obj 420 496 vsl 15 40 0 360 0 0 empty empty empty 0 -9 0 10 -262144
-1 -1 0 1;
#X floatatom 461 566 5 0 0 0 - - -;
#X obj 459 500 vsl 15 40 0 360 0 0 empty empty empty 0 -9 0 10 -262144
-1 -1 0 1;
#X floatatom 503 577 5 0 0 0 - - -;
#X obj 511 523 vsl 15 40 0 360 0 0 empty empty empty 0 -9 0 10 -262144
-1 -1 0 1;
#X obj 578 700 pix_texture;
#X obj 665 837 cuboid, f 16;
#X floatatom 748 764 5 0 0 0 - - -;
#X floatatom 775 790 5 0 0 0 - - -;
#X floatatom 810 811 5 0 0 0 - - -;
#X msg 851 742 -8, f 4;
#X msg 318 109 open /home/casper/SB2.jpg;
#X msg 363 135 open /home/casper/SB3.jpg;
#X msg 418 164 open /home/casper/SB4.jpg;
#X msg 463 191 open /home/casper/SB5.jpg;
#X msg 518 220 open /home/casper/SB6.jpg;
#X msg 545 253 open /home/casper/SB7.jpg;
#X msg 603 282 open /home/casper/SB8.jpg;
#X msg 653 309 open /home/casper/SB9.jpg;
#X msg 711 338 open /home/casper/SB10.jpg;
#X msg 777 739 4;
#X msg 819 750 -4;
#X floatatom 1166 222 4 0 0 0 - - -;
#X msg 1097 79 1;
#X msg 1114 126 0;
#X msg 1103 102 bang;
#X msg 1114 148 stop;
#X obj 1097 271 bng 25 250 50 0 empty empty empty 17 7 0 10 -262144
-1 -1;
#X obj 1097 245 metro 355;
#X obj 1084 322 counter 1 10;
#X floatatom 1074 363 5 0 0 0 - - -;
#X obj 694 63 sel 1 2 3 4 5 6 7 8 9 10, f 32;
#X floatatom 190 842 0 0 0 0 - - -;
#X floatatom 174 871 0 0 0 0 - - -;
#X floatatom 206 809 0 0 0 0 - - -;
#X obj 174 784 ctlin;
#X text 205 872 value;
#X text 237 810 channel;
#X text 218 783 (all controllers \, omni);
#X text 221 842 controller #;
#X obj 498 449 ctlin 12 1;
#X obj 439 415 ctlin 2 1;
#X obj 380 381 ctlin 0 1;
#X obj 443 457 * 2;
#X obj 389 435 * 2;
#X obj 498 481 * 2;
#X msg 1319 320 -3;
#X obj 1677 26 ctlin 9 1;
#X floatatom 1676 72 0 0 0 0 - - -;
#X text 1707 73 value;
#X obj 1675 119 - 64;
#X obj 1680 154 / 30;
#X floatatom 1681 187 0 0 0 0 - - -;
#X floatatom 1575 77 0 0 0 0 - - -;
#X text 1606 78 value;
#X obj 1574 124 - 64;
#X obj 1579 159 / 30;
#X floatatom 1580 192 0 0 0 0 - - -;
#X floatatom 1485 73 0 0 0 0 - - -;
#X text 1516 74 value;
#X obj 1484 120 - 64;
#X obj 1489 155 / 30;
#X floatatom 1490 188 0 0 0 0 - - -;
#X obj 1486 27 ctlin 7 1;
#X obj 1576 30 ctlin 8 1;
#X floatatom 912 450 0 0 0 0 - - -;
#X text 943 451 value;
#X obj 911 497 - 64;
#X obj 916 532 / 30;
#X floatatom 917 565 0 0 0 0 - - -;
#X obj 913 404 ctlin 17 1;
#X connect 1 0 0 0;
#X connect 2 0 0 0;
#X connect 3 0 0 0;
#X connect 4 0 0 0;
#X connect 5 0 0 0;
#X connect 6 0 5 0;
#X connect 8 0 7 0;
#X connect 9 0 7 0;
#X connect 10 0 7 0;
#X connect 11 0 8 0;
#X connect 11 0 9 0;
#X connect 12 0 10 0;
#X connect 13 0 9 0;
#X connect 14 0 7 0;
#X connect 15 0 14 0;
#X connect 16 0 17 0;
#X connect 17 0 7 0;
#X connect 18 0 19 0;
#X connect 19 0 7 0;
#X connect 20 0 7 0;
#X connect 21 0 7 0;
#X connect 22 0 16 0;
#X connect 23 0 16 0;
#X connect 24 0 16 0;
#X connect 25 0 11 0;
#X connect 26 0 13 0;
#X connect 27 0 12 0;
#X connect 28 0 29 0;
#X connect 29 0 7 0;
#X connect 30 0 16 0;
#X connect 31 0 35 0;
#X connect 32 0 33 0;
#X connect 33 0 34 0;
#X connect 34 0 35 0;
#X connect 35 0 43 0;
#X connect 37 0 36 1;
#X connect 38 0 37 0;
#X connect 39 0 36 2;
#X connect 40 0 39 0;
#X connect 41 0 36 3;
#X connect 42 0 41 0;
#X connect 43 0 36 0;
#X connect 43 0 50 0;
#X connect 44 0 43 1;
#X connect 45 0 44 0;
#X connect 46 0 43 2;
#X connect 47 0 46 0;
#X connect 48 0 43 3;
#X connect 49 0 48 0;
#X connect 50 0 51 0;
#X connect 52 0 51 1;
#X connect 53 0 51 2;
#X connect 54 0 51 3;
#X connect 55 0 54 0;
#X connect 56 0 35 0;
#X connect 57 0 35 0;
#X connect 58 0 35 0;
#X connect 59 0 35 0;
#X connect 60 0 35 0;
#X connect 61 0 35 0;
#X connect 62 0 35 0;
#X connect 63 0 35 0;
#X connect 64 0 35 0;
#X connect 65 0 52 0;
#X connect 66 0 53 0;
#X connect 67 0 73 1;
#X connect 68 0 73 0;
#X connect 69 0 73 0;
#X connect 70 0 73 0;
#X connect 71 0 73 0;
#X connect 72 0 74 0;
#X connect 73 0 72 0;
#X connect 74 0 75 0;
#X connect 75 0 76 0;
#X connect 76 0 34 0;
#X connect 76 1 56 0;
#X connect 76 2 57 0;
#X connect 76 3 58 0;
#X connect 76 4 59 0;
#X connect 76 5 60 0;
#X connect 76 6 61 0;
#X connect 76 7 62 0;
#X connect 76 8 63 0;
#X connect 76 9 64 0;
#X connect 80 0 78 0;
#X connect 80 1 77 0;
#X connect 80 2 79 0;
#X connect 85 0 90 0;
#X connect 86 0 88 0;
#X connect 87 0 89 0;
#X connect 88 0 47 0;
#X connect 89 0 45 0;
#X connect 90 0 49 0;
#X connect 91 0 16 0;
#X connect 92 0 93 0;
#X connect 93 0 95 0;
#X connect 95 0 96 0;
#X connect 96 0 97 0;
#X connect 97 0 27 0;
#X connect 98 0 100 0;
#X connect 100 0 101 0;
#X connect 101 0 102 0;
#X connect 102 0 26 0;
#X connect 103 0 105 0;
#X connect 105 0 106 0;
#X connect 106 0 107 0;
#X connect 107 0 25 0;
#X connect 108 0 103 0;
#X connect 109 0 98 0;
#X connect 110 0 112 0;
#X connect 112 0 113 0;
#X connect 113 0 114 0;
#X connect 114 0 42 0;
#X connect 115 0 110 0;
