#N canvas 2 87 893 735 12;
#X obj 583 11 gemhead;
#X obj 430 170 rotateXYZ;
#X floatatom 423 121 5 0 0 0 - - -;
#X floatatom 479 121 5 0 0 0 - - -;
#X floatatom 535 134 5 0 0 0 - - -;
#X msg 592 269 draw line;
#X obj 473 258 translateXYZ;
#X floatatom 487 204 5 0 0 0 - - -;
#X floatatom 528 183 5 0 0 0 - - -;
#X floatatom 549 210 5 0 0 0 - - -;
#X obj 464 366 sphere;
#X floatatom 491 312 5 0 0 0 - - -;
#X floatatom 541 309 5 0 0 0 - - -;
#X obj 324 313 color;
#X msg 315 261 1 0 0;
#X msg 374 260 1 1 0;
#X obj 61 89 gemwin;
#X msg 54 29 create;
#X msg 113 28 destroy;
#X obj 26 29 tgl 15 0 empty empty empty 17 7 0 10 -262144 -1 -1 1 1
;
#X obj 654 163 rotateXYZ;
#X floatatom 696 111 5 0 0 0 - - -;
#X floatatom 752 111 5 0 0 0 - - -;
#X floatatom 808 124 5 0 0 0 - - -;
#X obj 657 235 translateXYZ;
#X floatatom 760 194 5 0 0 0 - - -;
#X floatatom 809 180 5 0 0 0 - - -;
#X floatatom 847 204 5 0 0 0 - - -;
#X obj 885 137 rotateXYZ;
#X floatatom 927 85 5 0 0 0 - - -;
#X floatatom 983 85 5 0 0 0 - - -;
#X floatatom 1039 98 5 0 0 0 - - -;
#X obj 888 209 translateXYZ;
#X floatatom 991 168 5 0 0 0 - - -;
#X floatatom 1040 154 5 0 0 0 - - -;
#X floatatom 1078 178 5 0 0 0 - - -;
#X obj 754 455 sphere;
#X floatatom 781 401 5 0 0 0 - - -;
#X floatatom 831 398 5 0 0 0 - - -;
#X obj 905 458 sphere;
#X floatatom 932 404 5 0 0 0 - - -;
#X floatatom 982 401 5 0 0 0 - - -;
#X connect 0 0 1 0;
#X connect 0 0 20 0;
#X connect 0 0 28 0;
#X connect 1 0 6 0;
#X connect 2 0 1 1;
#X connect 3 0 1 2;
#X connect 4 0 1 3;
#X connect 5 0 10 0;
#X connect 5 0 36 0;
#X connect 5 0 39 0;
#X connect 6 0 10 0;
#X connect 7 0 6 1;
#X connect 8 0 6 2;
#X connect 9 0 6 3;
#X connect 11 0 10 1;
#X connect 12 0 10 2;
#X connect 14 0 13 1;
#X connect 15 0 13 1;
#X connect 17 0 16 0;
#X connect 18 0 16 0;
#X connect 19 0 16 0;
#X connect 20 0 24 0;
#X connect 21 0 20 1;
#X connect 22 0 20 2;
#X connect 23 0 20 3;
#X connect 24 0 36 0;
#X connect 25 0 24 1;
#X connect 26 0 24 2;
#X connect 27 0 24 3;
#X connect 28 0 32 0;
#X connect 29 0 28 1;
#X connect 30 0 28 2;
#X connect 31 0 28 3;
#X connect 32 0 39 0;
#X connect 33 0 32 1;
#X connect 34 0 32 2;
#X connect 35 0 32 3;
#X connect 37 0 36 1;
#X connect 38 0 36 2;
#X connect 40 0 39 1;
#X connect 41 0 39 2;
