#N canvas 2 99 1412 957 12;
#X obj 42 13 gemwin;
#X msg 42 -50 create;
#X msg 53 -22 destroy;
#X obj 22 -20 tgl 15 0 empty empty empty 17 7 0 10 -262144 -1 -1 1
1;
#X obj 119 105 gemhead;
#X obj 119 224 rotateXYZ;
#X floatatom 146 146 5 0 0 0 - - -;
#X floatatom 194 148 5 0 0 0 - - -;
#X floatatom 238 149 5 0 0 0 - - -;
#X msg 40 246 draw line;
#X msg 27 291 draw fill;
#X obj 190 287 translateXYZ;
#X floatatom 217 198 5 0 0 0 - - -;
#X floatatom 244 224 5 0 0 0 - - -;
#X floatatom 272 254 5 0 0 0 - - -;
#X obj 98 337 color;
#X msg 129 272 1 0 0;
#X obj 163 -58 tgl 15 0 empty empty empty 17 7 0 10 -262144 -1 -1 0
1;
#X obj 163 -3 bng 15 250 50 0 empty empty empty 17 7 0 10 -262144 -1
-1;
#X obj 163 19 counter 0 360;
#X floatatom 163 48 5 0 0 0 - - -;
#X obj 447 107 gemhead;
#X obj 447 226 rotateXYZ;
#X floatatom 477 150 5 0 0 0 - - -;
#X floatatom 522 150 5 0 0 0 - - -;
#X floatatom 566 151 5 0 0 0 - - -;
#X msg 368 248 draw line;
#X msg 353 286 draw fill;
#X obj 518 289 translateXYZ;
#X floatatom 545 200 5 0 0 0 - - -;
#X floatatom 572 226 5 0 0 0 - - -;
#X floatatom 599 253 5 0 0 0 - - -;
#X obj 426 339 color;
#X msg 457 274 1 0 0;
#X msg 466 306 1 1 0;
#X obj 721 97 gemhead;
#X obj 751 214 rotateXYZ;
#X floatatom 781 138 5 0 0 0 - - -;
#X floatatom 826 138 5 0 0 0 - - -;
#X floatatom 870 139 5 0 0 0 - - -;
#X msg 672 236 draw line;
#X msg 657 281 draw fill;
#X obj 822 277 translateXYZ;
#X floatatom 849 188 5 0 0 0 - - -;
#X floatatom 876 214 5 0 0 0 - - -;
#X floatatom 903 241 5 0 0 0 - - -;
#X obj 730 327 color;
#X msg 761 262 1 0 0;
#X msg 770 294 1 1 0;
#X msg 306 176 -2;
#X msg 662 165 -2;
#X msg 960 158 -2;
#X msg 623 164 -3;
#X msg 924 144 3;
#X obj 100 441 gemhead;
#X obj 137 524 rotateXYZ;
#X floatatom 157 458 5 0 0 0 - - -;
#X floatatom 205 460 5 0 0 0 - - -;
#X floatatom 249 461 5 0 0 0 - - -;
#X msg 58 546 draw line;
#X msg -10 588 draw fill;
#X obj 208 587 translateXYZ;
#X floatatom 235 498 5 0 0 0 - - -;
#X floatatom 262 524 5 0 0 0 - - -;
#X floatatom 290 554 5 0 0 0 - - -;
#X obj 116 637 color;
#X msg 147 572 1 0 0;
#X msg 156 604 1 1 0;
#X obj 428 443 gemhead;
#X obj 465 526 rotateXYZ;
#X floatatom 488 462 5 0 0 0 - - -;
#X floatatom 533 462 5 0 0 0 - - -;
#X floatatom 577 463 5 0 0 0 - - -;
#X msg 386 548 draw line;
#X msg 318 590 draw fill;
#X obj 536 589 translateXYZ;
#X floatatom 563 500 5 0 0 0 - - -;
#X floatatom 590 526 5 0 0 0 - - -;
#X floatatom 617 553 5 0 0 0 - - -;
#X obj 444 639 color;
#X msg 475 574 1 0 0;
#X msg 484 606 1 1 0;
#X obj 766 444 gemhead;
#X obj 803 527 rotateXYZ;
#X floatatom 826 463 5 0 0 0 - - -;
#X floatatom 871 463 5 0 0 0 - - -;
#X floatatom 915 464 5 0 0 0 - - -;
#X msg 724 549 draw line;
#X msg 656 591 draw fill;
#X obj 874 590 translateXYZ;
#X floatatom 901 501 5 0 0 0 - - -;
#X floatatom 928 527 5 0 0 0 - - -;
#X floatatom 955 554 5 0 0 0 - - -;
#X obj 782 640 color;
#X msg 813 575 1 0 0;
#X msg 822 607 1 1 0;
#X msg 317 488 -2;
#X msg 688 487 -2;
#X msg 1004 467 -2;
#X msg 621 476 -3;
#X msg 969 469 3;
#X msg 295 454 3;
#X msg 658 478 3;
#X msg 955 444 3;
#X obj 108 734 gemhead;
#X obj 108 853 rotateXYZ;
#X floatatom 135 775 5 0 0 0 - - -;
#X floatatom 183 777 5 0 0 0 - - -;
#X floatatom 227 778 5 0 0 0 - - -;
#X msg 29 875 draw line;
#X msg -39 917 draw fill;
#X obj 179 916 translateXYZ;
#X floatatom 206 827 5 0 0 0 - - -;
#X floatatom 233 853 5 0 0 0 - - -;
#X floatatom 261 883 5 0 0 0 - - -;
#X obj 87 966 color;
#X msg 118 901 1 0 0;
#X msg 127 933 1 1 0;
#X obj 436 736 gemhead;
#X obj 436 855 rotateXYZ;
#X floatatom 466 779 5 0 0 0 - - -;
#X floatatom 511 779 5 0 0 0 - - -;
#X floatatom 555 780 5 0 0 0 - - -;
#X msg 357 877 draw line;
#X msg 289 919 draw fill;
#X obj 507 918 translateXYZ;
#X floatatom 534 829 5 0 0 0 - - -;
#X floatatom 561 855 5 0 0 0 - - -;
#X floatatom 588 882 5 0 0 0 - - -;
#X obj 415 968 color;
#X msg 446 903 1 0 0;
#X msg 455 935 1 1 0;
#X obj 774 737 gemhead;
#X obj 774 856 rotateXYZ;
#X floatatom 804 780 5 0 0 0 - - -;
#X floatatom 849 780 5 0 0 0 - - -;
#X floatatom 893 781 5 0 0 0 - - -;
#X msg 695 878 draw line;
#X msg 627 920 draw fill;
#X obj 845 919 translateXYZ;
#X floatatom 872 830 5 0 0 0 - - -;
#X floatatom 899 856 5 0 0 0 - - -;
#X floatatom 926 883 5 0 0 0 - - -;
#X obj 753 969 color;
#X msg 784 904 1 0 0;
#X msg 793 936 1 1 0;
#X msg 295 805 -2;
#X msg 666 804 -2;
#X msg 982 784 -2;
#X msg 599 793 -3;
#X msg 947 786 3;
#X msg 282 766 -3;
#X msg 636 795 -3;
#X msg 963 737 -3;
#X obj 104 399 sphere;
#X msg 138 304 1 1 1;
#X obj 432 401 sphere;
#X obj 736 389 sphere;
#X obj 116 689 sphere;
#X obj 444 691 sphere;
#X obj 782 692 sphere;
#X obj 87 1018 sphere;
#X obj 415 1020 sphere;
#X obj 753 1021 sphere;
#X obj 1282 253 dac~ 1 2;
#X obj 1182 31 openpanel;
#X obj 1180 1 bng 15 250 50 0 empty empty empty 17 7 0 10 -262144 -1
-1;
#X msg 1126 12 start;
#X msg 1082 140 stop;
#X obj 1254 146 bng 15 250 50 0 empty empty empty 17 7 0 10 -262144
-1 -1;
#X obj 1101 349 env~;
#X obj 1059 347 env~;
#X floatatom 1101 389 5 0 0 0 - - -;
#X floatatom 1058 391 5 0 0 0 - - -;
#X obj 1231 355 hip~;
#X obj 1231 397 env~;
#X floatatom 1232 430 5 0 0 0 - - -;
#X msg 1258 305 3000;
#X obj 1170 337 env~;
#X floatatom 1166 365 5 0 0 0 - - -;
#X obj 1170 295 lop~;
#X msg 1197 245 90;
#X obj 1184 110 soundfiler;
#X obj 1315 152 spigot;
#X obj 1347 116 tgl 15 0 empty empty empty 17 7 0 10 -262144 -1 -1
0 1;
#X obj 1161 186 tabplay~ leftChannel;
#X floatatom 1172 142 5 0 0 0 - - -;
#N canvas 0 50 450 250 (subpatch) 0;
#X array leftChannel 8.82e+06 float 2;
#X coords 0 1 8.82e+06 -1 200 140 1;
#X restore 1156 807 graph;
#N canvas 0 50 450 250 (subpatch) 0;
#X array rightChannel 8.82e+06 float 2;
#X coords 0 1 8.82e+06 -1 200 140 1;
#X restore 1156 966 graph;
#X msg 1092 83 read -resize \$1 leftChannel rightChannel;
#X obj 1250 211 tabplay~ rightChannel;
#X obj 1161 454 s lowOut;
#X obj 1233 562 s highOut;
#X msg 535 80 0;
#X floatatom 1279 485 5 0 0 0 - - -;
#X obj 1223 748 line 36 100;
#X obj 1339 497 tgl 15 0 empty empty empty 17 7 0 10 -262144 -1 -1
0 1;
#X floatatom 334 23 5 0 0 0 - - -;
#X msg 1181 684 24 600;
#X obj 1247 652 delay 600 1000 msec;
#X msg 1246 690 0 400;
#X obj 282 -12 random 36;
#X obj 251 50 s random36Out;
#X obj 1290 456 > 80;
#X obj 294 -53 bng 15 250 50 0 empty empty empty 17 7 0 10 -262144
-1 -1;
#X floatatom 1164 422 5 0 0 0 - - -;
#X obj 511 345 r random36Out;
#X floatatom 484 35 5 0 0 0 - - -;
#X obj 405 -1 random 36;
#X obj 416 -47 bng 15 250 50 0 empty empty empty 17 7 0 10 -262144
-1 -1;
#X obj 373 56 s random36Out2;
#X obj 185 965 r random36Out2;
#X obj 853 318 r random36Out;
#X obj 201 661 r random36Out2;
#X floatatom 190 634 5 0 0 0 - - -;
#X obj 195 321 r lowOut;
#X obj 869 642 r highOut;
#X obj 525 639 r highOut;
#X obj 846 960 r highOut;
#X obj 494 968 r highOut;
#X obj 1164 392 / 70;
#X obj 1228 492 / 60;
#X obj 163 -33 metro 600;
#X connect 1 0 0 0;
#X connect 2 0 0 0;
#X connect 3 0 0 0;
#X connect 4 0 5 0;
#X connect 5 0 11 0;
#X connect 5 0 15 0;
#X connect 6 0 5 1;
#X connect 7 0 5 2;
#X connect 8 0 5 3;
#X connect 9 0 154 0;
#X connect 10 0 154 0;
#X connect 11 0 154 0;
#X connect 12 0 11 1;
#X connect 13 0 11 2;
#X connect 14 0 11 3;
#X connect 15 0 154 0;
#X connect 16 0 15 1;
#X connect 17 0 222 0;
#X connect 18 0 19 0;
#X connect 19 0 20 0;
#X connect 21 0 22 0;
#X connect 22 0 28 0;
#X connect 22 0 32 0;
#X connect 23 0 22 1;
#X connect 24 0 22 2;
#X connect 25 0 22 3;
#X connect 26 0 156 0;
#X connect 27 0 156 0;
#X connect 28 0 156 0;
#X connect 29 0 28 1;
#X connect 30 0 28 2;
#X connect 31 0 28 3;
#X connect 32 0 156 0;
#X connect 33 0 32 1;
#X connect 34 0 32 1;
#X connect 35 0 36 0;
#X connect 36 0 42 0;
#X connect 36 0 46 0;
#X connect 37 0 36 1;
#X connect 38 0 36 2;
#X connect 39 0 36 3;
#X connect 40 0 157 0;
#X connect 41 0 157 0;
#X connect 42 0 157 0;
#X connect 43 0 42 1;
#X connect 44 0 42 2;
#X connect 45 0 42 3;
#X connect 46 0 157 0;
#X connect 47 0 46 1;
#X connect 48 0 46 1;
#X connect 49 0 14 0;
#X connect 50 0 31 0;
#X connect 51 0 45 0;
#X connect 52 0 29 0;
#X connect 53 0 43 0;
#X connect 54 0 55 0;
#X connect 55 0 61 0;
#X connect 55 0 65 0;
#X connect 56 0 55 1;
#X connect 57 0 55 2;
#X connect 58 0 55 3;
#X connect 59 0 158 0;
#X connect 60 0 158 0;
#X connect 61 0 158 0;
#X connect 62 0 61 1;
#X connect 63 0 61 2;
#X connect 64 0 61 3;
#X connect 65 0 158 0;
#X connect 66 0 65 1;
#X connect 67 0 65 1;
#X connect 68 0 69 0;
#X connect 69 0 75 0;
#X connect 69 0 79 0;
#X connect 70 0 69 1;
#X connect 71 0 69 2;
#X connect 72 0 69 3;
#X connect 73 0 159 0;
#X connect 74 0 159 0;
#X connect 75 0 159 0;
#X connect 76 0 75 1;
#X connect 77 0 75 2;
#X connect 78 0 75 3;
#X connect 79 0 159 0;
#X connect 80 0 79 1;
#X connect 81 0 79 1;
#X connect 82 0 83 0;
#X connect 83 0 89 0;
#X connect 83 0 93 0;
#X connect 84 0 83 1;
#X connect 85 0 83 2;
#X connect 86 0 83 3;
#X connect 87 0 160 0;
#X connect 88 0 160 0;
#X connect 89 0 160 0;
#X connect 90 0 89 1;
#X connect 91 0 89 2;
#X connect 92 0 89 3;
#X connect 93 0 160 0;
#X connect 94 0 93 1;
#X connect 95 0 93 1;
#X connect 96 0 64 0;
#X connect 97 0 78 0;
#X connect 98 0 92 0;
#X connect 99 0 76 0;
#X connect 100 0 90 0;
#X connect 101 0 63 0;
#X connect 102 0 77 0;
#X connect 103 0 91 0;
#X connect 104 0 105 0;
#X connect 105 0 111 0;
#X connect 105 0 115 0;
#X connect 106 0 105 1;
#X connect 107 0 105 2;
#X connect 108 0 105 3;
#X connect 109 0 161 0;
#X connect 110 0 161 0;
#X connect 111 0 161 0;
#X connect 112 0 111 1;
#X connect 113 0 111 2;
#X connect 114 0 111 3;
#X connect 115 0 161 0;
#X connect 116 0 115 1;
#X connect 117 0 115 1;
#X connect 118 0 119 0;
#X connect 119 0 125 0;
#X connect 119 0 129 0;
#X connect 120 0 119 1;
#X connect 121 0 119 2;
#X connect 122 0 119 3;
#X connect 123 0 162 0;
#X connect 124 0 162 0;
#X connect 125 0 162 0;
#X connect 126 0 125 1;
#X connect 127 0 125 2;
#X connect 128 0 125 3;
#X connect 129 0 162 0;
#X connect 130 0 129 1;
#X connect 131 0 129 1;
#X connect 132 0 133 0;
#X connect 133 0 139 0;
#X connect 133 0 143 0;
#X connect 134 0 133 1;
#X connect 135 0 133 2;
#X connect 136 0 133 3;
#X connect 137 0 163 0;
#X connect 138 0 163 0;
#X connect 139 0 163 0;
#X connect 140 0 139 1;
#X connect 141 0 139 2;
#X connect 142 0 139 3;
#X connect 143 0 163 0;
#X connect 144 0 143 1;
#X connect 145 0 143 1;
#X connect 146 0 114 0;
#X connect 147 0 128 0;
#X connect 148 0 142 0;
#X connect 149 0 126 0;
#X connect 150 0 140 0;
#X connect 151 0 113 0;
#X connect 152 0 127 0;
#X connect 153 0 141 0;
#X connect 155 0 15 1;
#X connect 165 0 189 0;
#X connect 166 0 165 0;
#X connect 168 0 185 0;
#X connect 168 0 190 0;
#X connect 169 0 185 0;
#X connect 169 0 190 0;
#X connect 170 0 172 0;
#X connect 171 0 173 0;
#X connect 174 0 175 0;
#X connect 175 0 176 0;
#X connect 176 0 203 0;
#X connect 176 0 221 0;
#X connect 177 0 174 1;
#X connect 178 0 179 0;
#X connect 179 0 220 0;
#X connect 180 0 178 0;
#X connect 181 0 180 1;
#X connect 182 0 186 0;
#X connect 183 0 169 0;
#X connect 184 0 183 1;
#X connect 185 0 164 0;
#X connect 185 0 180 0;
#X connect 189 0 182 0;
#X connect 190 0 164 1;
#X connect 190 0 174 0;
#X connect 190 1 183 0;
#X connect 193 0 25 0;
#X connect 193 0 24 0;
#X connect 193 0 23 0;
#X connect 198 0 195 0;
#X connect 199 0 200 0;
#X connect 200 0 195 0;
#X connect 201 0 202 0;
#X connect 201 0 197 0;
#X connect 203 0 194 0;
#X connect 203 0 196 0;
#X connect 204 0 201 0;
#X connect 205 0 191 0;
#X connect 206 0 156 2;
#X connect 208 0 207 0;
#X connect 208 0 210 0;
#X connect 209 0 208 0;
#X connect 211 0 161 2;
#X connect 212 0 157 2;
#X connect 213 0 158 2;
#X connect 214 0 158 1;
#X connect 215 0 154 1;
#X connect 216 0 160 1;
#X connect 217 0 159 1;
#X connect 218 0 163 1;
#X connect 219 0 162 1;
#X connect 220 0 205 0;
#X connect 221 0 192 0;
#X connect 222 0 18 0;
#X connect 222 0 204 0;
#X connect 222 0 209 0;
