#N canvas 246 156 1065 808 12;
#X obj 61 89 gemwin;
#X msg 61 26 create;
#X msg 72 54 destroy;
#X obj 41 56 tgl 15 0 empty empty empty 17 7 0 10 -262144 -1 -1 1 1
;
#X obj 262 137 gemhead;
#X obj 239 483 cube;
#X obj 262 256 rotateXYZ;
#X floatatom 292 180 5 0 0 0 - - -;
#X floatatom 337 180 5 0 0 0 - - -;
#X floatatom 381 181 5 0 0 0 - - -;
#X msg 183 278 draw line;
#X msg 115 320 draw fill;
#X obj 333 319 translateXYZ;
#X floatatom 360 230 5 0 0 0 - - -;
#X floatatom 387 256 5 0 0 0 - - -;
#X floatatom 414 283 5 0 0 0 - - -;
#X obj 474 232 gemhead;
#X obj 474 337 rotateXYZ;
#X floatatom 494 260 5 0 0 0 - - -;
#X floatatom 544 260 5 0 0 0 - - -;
#X floatatom 591 261 5 0 0 0 - - -;
#X msg 380 402 draw line;
#X obj 474 378 translateXYZ;
#X floatatom 559 323 5 0 0 0 - - -;
#X floatatom 599 325 5 0 0 0 - - -;
#X floatatom 641 328 5 0 0 0 - - -;
#X obj 439 525 sphere;
#X floatatom 585 436 5 0 0 0 - - -;
#X floatatom 652 425 5 0 0 0 - - -;
#X obj 241 369 color;
#X msg 272 304 1 0 0;
#X msg 281 336 1 1 0;
#X obj 450 458 color;
#X msg 486 413 1 0 0;
#X msg 545 412 1 1 0;
#X obj 455 -5 tgl 15 0 empty empty empty 17 7 0 10 -262144 -1 -1 1
1;
#X obj 455 50 bng 15 250 50 0 empty empty empty 17 7 0 10 -262144 -1
-1;
#X obj 455 72 counter 0 360;
#X floatatom 455 101 5 0 0 0 - - -;
#X obj 455 20 metro 50;
#X connect 1 0 0 0;
#X connect 2 0 0 0;
#X connect 3 0 0 0;
#X connect 4 0 6 0;
#X connect 6 0 12 0;
#X connect 6 0 29 0;
#X connect 7 0 6 1;
#X connect 8 0 6 2;
#X connect 9 0 6 3;
#X connect 10 0 5 0;
#X connect 11 0 5 0;
#X connect 12 0 5 0;
#X connect 13 0 12 1;
#X connect 14 0 12 2;
#X connect 15 0 12 3;
#X connect 16 0 17 0;
#X connect 17 0 22 0;
#X connect 18 0 17 1;
#X connect 19 0 17 2;
#X connect 20 0 17 3;
#X connect 21 0 26 0;
#X connect 22 0 32 0;
#X connect 23 0 22 1;
#X connect 24 0 22 2;
#X connect 25 0 22 3;
#X connect 27 0 26 1;
#X connect 28 0 26 2;
#X connect 29 0 5 0;
#X connect 30 0 29 1;
#X connect 31 0 29 1;
#X connect 32 0 26 0;
#X connect 33 0 32 1;
#X connect 34 0 32 1;
#X connect 35 0 39 0;
#X connect 36 0 37 0;
#X connect 37 0 38 0;
#X connect 38 0 19 0;
#X connect 38 0 9 0;
#X connect 38 0 7 0;
#X connect 38 0 8 0;
#X connect 38 0 20 0;
#X connect 39 0 36 0;
